<?xml version="1.0" encoding="UTF-8"?>
<svg version="1.1" xmlns="http://www.w3.org/2000/svg" width="500" height="500">
<path d="M0 0 C1.16595703 -0.00580078 1.16595703 -0.00580078 2.35546875 -0.01171875 C7.03862481 -0.0038479 11.5299962 0.17720548 16.125 1.125 C16.455 1.785 16.785 2.445 17.125 3.125 C20.07181017 3.98825267 23.04572505 4.59929419 26.046875 5.24609375 C29.19343122 6.14453937 31.40845275 7.32596208 34.125 9.125 C34.805625 9.55941406 35.48625 9.99382813 36.1875 10.44140625 C36.826875 10.85261719 37.46625 11.26382813 38.125 11.6875 C41.03798599 13.51915028 43.85548499 15.00110421 47.125 16.125 C47.125 16.785 47.125 17.445 47.125 18.125 C47.846875 18.3725 48.56875 18.62 49.3125 18.875 C52.40512877 20.24950167 54.52486895 21.96879376 57.125 24.125 C59.09978992 25.50080151 61.10770488 26.81141248 63.125 28.125 C62.70516074 33.02312469 60.59621495 34.819081 57.125 38.125 C56.3825 39.3625 56.3825 39.3625 55.625 40.625 C53.49852512 44.1691248 50.85954599 47.257727 47.125 49.125 C46.42375 48.5475 45.7225 47.97 45 47.375 C41.25186243 44.44167494 37.39368681 41.84208385 33.25 39.5 C32.54875 39.04625 31.8475 38.5925 31.125 38.125 C31.125 37.465 31.125 36.805 31.125 36.125 C30.568125 35.95484375 30.01125 35.7846875 29.4375 35.609375 C25.51915312 34.36503511 21.82226697 33.05759594 18.1875 31.125 C11.2780902 27.56062193 2.96222147 24.4319417 -4.875 26.125 C-9.32079135 28.2154975 -13.0204672 30.2801675 -15.12890625 34.83203125 C-15.37511719 35.58871094 -15.62132812 36.34539062 -15.875 37.125 C-16.535 37.125 -17.195 37.125 -17.875 37.125 C-21.25651204 58.19906612 -19.87143882 78.96593428 -17.875 100.125 C-17.215 100.125 -16.555 100.125 -15.875 100.125 C-15.37076443 102.87428442 -14.87146574 105.62431143 -14.375 108.375 C-14.23191406 109.15230469 -14.08882813 109.92960937 -13.94140625 110.73046875 C-13.80605469 111.48457031 -13.67070312 112.23867187 -13.53125 113.015625 C-13.40556641 113.70688477 -13.27988281 114.39814453 -13.15039062 115.11035156 C-12.875 117.125 -12.875 117.125 -12.875 121.125 C-12.215 121.125 -11.555 121.125 -10.875 121.125 C-10.545 122.115 -10.215 123.105 -9.875 124.125 C-7.9878125 123.83496094 -7.9878125 123.83496094 -6.0625 123.5390625 C6.12011362 121.68055573 18.30468397 119.92563323 30.56640625 118.6640625 C31.29762695 118.58422119 32.02884766 118.50437988 32.78222656 118.42211914 C34.8186641 118.20043626 36.85657084 117.99237236 38.89453125 117.78515625 C42.1510186 117.11968302 43.23104406 116.76864684 45.125 114.125 C46.30074711 112.02510348 46.30074711 112.02510348 47.125 110.125 C47.785 110.125 48.445 110.125 49.125 110.125 C49.393125 109.361875 49.66125 108.59875 49.9375 107.8125 C51.11025491 105.15837046 52.08181362 104.08645892 54.125 102.125 C54.640625 101.238125 55.15625 100.35125 55.6875 99.4375 C56.161875 98.674375 56.63625 97.91125 57.125 97.125 C57.785 97.125 58.445 97.125 59.125 97.125 C59.49625 95.76375 59.49625 95.76375 59.875 94.375 C61.21258065 90.8972903 62.41611282 89.60169685 65.125 87.125 C66.36710465 85.65995349 67.60835299 84.1939259 68.82421875 82.70703125 C69.70919131 81.63071327 70.60829504 80.56589397 71.51953125 79.51171875 C73.63842781 77.0508677 75.0869947 75.23901591 76.125 72.125 C75.135 72.125 74.145 72.125 73.125 72.125 C73.125 71.465 73.125 70.805 73.125 70.125 C76.095 70.62 76.095 70.62 79.125 71.125 C78.795 70.135 78.465 69.145 78.125 68.125 C79.07375 68.0425 80.0225 67.96 81 67.875 C84.18263667 67.48874675 84.18263667 67.48874675 85.3125 65.3125 C85.7146875 64.2296875 85.7146875 64.2296875 86.125 63.125 C87.625 60.875 87.625 60.875 89.125 59.125 C89.785 59.125 90.445 59.125 91.125 59.125 C91.4653125 58.29742187 91.4653125 58.29742187 91.8125 57.453125 C93.51225926 54.43807583 95.67304816 52.31269631 98.125 49.875 C99.011875 48.98296875 99.89875 48.0909375 100.8125 47.171875 C103.125 45.125 103.125 45.125 105.125 45.125 C105.125 44.465 105.125 43.805 105.125 43.125 C106.59651051 41.84969089 108.07362247 40.5792426 109.59765625 39.3671875 C111.2228611 38.09610001 111.2228611 38.09610001 112.875 36.3125 C114.125 35.125 114.125 35.125 116.125 35.125 C116.125 34.465 116.125 33.805 116.125 33.125 C117.115 33.125 118.105 33.125 119.125 33.125 C119.393125 32.485625 119.66125 31.84625 119.9375 31.1875 C121.125 29.125 121.125 29.125 124.125 28.125 C126.00045028 26.36676537 127.74888307 24.53570239 129.484375 22.640625 C131.32875751 20.93676687 133.15024929 19.90904845 135.375 18.75 C138.30259733 17.17505669 141.02473956 15.55191872 143.6875 13.5625 C151.23427793 7.99434366 159.80407694 5.12892801 168.796875 2.80859375 C171.06519962 2.34455067 171.06519962 2.34455067 172.125 1.125 C173.90571246 1.03773777 175.6898314 1.01800959 177.47265625 1.02734375 C178.55224609 1.03056641 179.63183594 1.03378906 180.74414062 1.03710938 C182.44860352 1.04967773 182.44860352 1.04967773 184.1875 1.0625 C185.89776367 1.06926758 185.89776367 1.06926758 187.64257812 1.07617188 C190.47010351 1.08800253 193.2975264 1.1044859 196.125 1.125 C196.125 1.785 196.125 2.445 196.125 3.125 C197.424375 3.310625 198.72375 3.49625 200.0625 3.6875 C205.78767686 4.9395989 210.0184668 8.00930043 214.125 12.125 C214.455 13.115 214.785 14.105 215.125 15.125 C216.115 15.455 217.105 15.785 218.125 16.125 C228.87532568 30.3154299 230.47315622 46.25059546 230.3125 63.5 C230.31185547 64.80710937 230.31121094 66.11421875 230.31054688 67.4609375 C230.22751208 86.06073146 230.22751208 86.06073146 229.125 93.125 C226.00694356 94.68402822 223.83010137 93.31005252 220.5625 92.3125 C216.51565841 91.08470688 212.51490645 89.95922472 208.38305664 89.0559082 C207.18248375 88.7924334 207.18248375 88.7924334 205.95765686 88.52363586 C205.3528801 88.39208603 204.74810333 88.26053619 204.125 88.125 C204.13023682 86.9604126 204.13547363 85.7958252 204.14086914 84.59594727 C204.15908427 80.24048645 204.17049192 75.88502895 204.17993164 71.52954102 C204.18493432 69.65095451 204.19173856 67.77237185 204.20043945 65.89379883 C204.21268427 63.18049161 204.21826911 60.46723624 204.22265625 57.75390625 C204.22781754 56.92540665 204.23297882 56.09690704 204.23829651 55.24330139 C204.23881073 49.79577038 203.80985371 44.53036785 203.125 39.125 C202.465 39.125 201.805 39.125 201.125 39.125 C201.01285156 38.51011719 200.90070313 37.89523438 200.78515625 37.26171875 C199.6375739 32.32826386 199.6375739 32.32826386 196.203125 28.859375 C185.99349781 25.26840268 177.04517563 27.58046236 167.125 31.125 C164.61563366 32.36215966 162.25500772 33.67344634 159.89453125 35.171875 C158.125 36.125 158.125 36.125 155.125 36.125 C155.125 36.785 155.125 37.445 155.125 38.125 C154.25875 38.5375 153.3925 38.95 152.5 39.375 C149.07099852 41.07175802 149.07099852 41.07175802 145.875 43.3125 C143.125 45.125 143.125 45.125 141.125 45.125 C141.125 45.785 141.125 46.445 141.125 47.125 C137.66346154 50.125 137.66346154 50.125 135.125 50.125 C135.125 50.785 135.125 51.445 135.125 52.125 C134.465 52.125 133.805 52.125 133.125 52.125 C133.125 52.785 133.125 53.445 133.125 54.125 C131.64 54.62 131.64 54.62 130.125 55.125 C128.39567654 56.75259855 126.76232028 58.40761516 125.125 60.125 C123.56873107 61.7352124 122.00579439 63.33899769 120.4375 64.9375 C119.67050781 65.72769531 118.90351563 66.51789063 118.11328125 67.33203125 C116.125 69.125 116.125 69.125 114.125 69.125 C113.135 71.105 113.135 71.105 112.125 73.125 C111.465 73.125 110.805 73.125 110.125 73.125 C110.67571188 76.97998318 112.34489821 78.50376117 115.125 81.125 C118.11476411 84.71271693 120.88750317 88.45937927 123.671875 92.20703125 C124.86145749 93.77715222 126.11046848 95.30208735 127.375 96.8125 C129.16287065 99.17504336 130.16789627 101.33344745 131.125 104.125 C131.785 104.125 132.445 104.125 133.125 104.125 C136.125 108.50961538 136.125 108.50961538 136.125 111.125 C136.785 111.125 137.445 111.125 138.125 111.125 C138.48762939 112.08937988 138.85025879 113.05375977 139.22387695 114.04736328 C140.82059782 117.37124292 140.82059782 117.37124292 144.03588867 118.08154297 C145.1932251 118.17580566 146.35056152 118.27006836 147.54296875 118.3671875 C148.79658203 118.48320312 150.05019531 118.59921875 151.34179688 118.71875 C152.65212891 118.8115625 153.96246094 118.904375 155.3125 119 C156.64801125 119.11459726 157.98330533 119.23175625 159.31835938 119.3515625 C162.58597734 119.63467741 165.85353401 119.89134647 169.125 120.125 C169.125 120.785 169.125 121.445 169.125 122.125 C170.0325 121.939375 170.94 121.75375 171.875 121.5625 C174.99671006 121.1422698 176.2080912 121.33024706 179.125 122.125 C180.78339369 122.39578938 182.44530401 122.64553044 184.109375 122.87890625 C185.51123047 123.07709961 185.51123047 123.07709961 186.94140625 123.27929688 C188.39353516 123.48135742 188.39353516 123.48135742 189.875 123.6875 C190.85855469 123.82607422 191.84210938 123.96464844 192.85546875 124.10742188 C195.27838594 124.44851216 197.7015617 124.78763555 200.125 125.125 C200.125 125.785 200.125 126.445 200.125 127.125 C201.61 126.63 201.61 126.63 203.125 126.125 C205.36976772 126.52475316 207.59921022 127.01465599 209.8125 127.5625 C211.58173828 127.99369141 211.58173828 127.99369141 213.38671875 128.43359375 C214.29035156 128.66175781 215.19398438 128.88992187 216.125 129.125 C212.48883344 127.1460244 209.24074371 126.5998935 205.125 126.125 C205.125 125.135 205.125 124.145 205.125 123.125 C204.465 123.125 203.805 123.125 203.125 123.125 C203.125 123.785 203.125 124.445 203.125 125.125 C202.465 125.125 201.805 125.125 201.125 125.125 C201.125 124.465 201.125 123.805 201.125 123.125 C199.805 122.795 198.485 122.465 197.125 122.125 C197.43627516 120.54142541 197.74907289 118.95815007 198.0625 117.375 C198.32353516 116.05242187 198.32353516 116.05242187 198.58984375 114.703125 C198.90220642 113.19831215 199.23358219 111.69677625 199.61132812 110.20703125 C200.45343566 106.79377411 201.04942077 103.3310081 201.6875 99.875 C201.82607422 99.12992187 201.96464844 98.38484375 202.10742188 97.6171875 C202.44771188 95.78666198 202.78650413 93.95585814 203.125 92.125 C203.785 92.125 204.445 92.125 205.125 92.125 C204.795 91.135 204.465 90.145 204.125 89.125 C205.445 89.455 206.765 89.785 208.125 90.125 C208.125 90.785 208.125 91.445 208.125 92.125 C208.785 92.125 209.445 92.125 210.125 92.125 C210.455 91.465 210.785 90.805 211.125 90.125 C212.7748275 90.54718816 214.41983665 90.98824425 216.0625 91.4375 C216.97902344 91.68113281 217.89554687 91.92476563 218.83984375 92.17578125 C219.59394531 92.48902344 220.34804688 92.80226563 221.125 93.125 C221.455 94.115 221.785 95.105 222.125 96.125 C221.465 96.455 220.805 96.785 220.125 97.125 C220.125 96.465 220.125 95.805 220.125 95.125 C219.465 95.125 218.805 95.125 218.125 95.125 C218.125 97.105 218.125 99.085 218.125 101.125 C217.465 101.125 216.805 101.125 216.125 101.125 C215.795 99.475 215.465 97.825 215.125 96.125 C214.465 96.125 213.805 96.125 213.125 96.125 C213.125 97.445 213.125 98.765 213.125 100.125 C211.625 101.875 211.625 101.875 210.125 103.125 C212.105 102.795 214.085 102.465 216.125 102.125 C215.795 103.445 215.465 104.765 215.125 106.125 C214.135 105.795 213.145 105.465 212.125 105.125 C212.125 106.115 212.125 107.105 212.125 108.125 C213.115 108.125 214.105 108.125 215.125 108.125 C215.125 109.115 215.125 110.105 215.125 111.125 C213.805 110.795 212.485 110.465 211.125 110.125 C211.125 108.805 211.125 107.485 211.125 106.125 C210.135 106.125 209.145 106.125 208.125 106.125 C208.125 106.785 208.125 107.445 208.125 108.125 C208.785 108.125 209.445 108.125 210.125 108.125 C210.455 110.435 210.785 112.745 211.125 115.125 C211.785 114.465 212.445 113.805 213.125 113.125 C213.125 114.115 213.125 115.105 213.125 116.125 C214.115 116.455 215.105 116.785 216.125 117.125 C214.64 117.62 214.64 117.62 213.125 118.125 C213.125 118.785 213.125 119.445 213.125 120.125 C213.723125 119.795 214.32125 119.465 214.9375 119.125 C217.125 118.125 217.125 118.125 220.125 118.125 C220.455 120.435 220.785 122.745 221.125 125.125 C219.64 125.62 219.64 125.62 218.125 126.125 C218.125 126.785 218.125 127.445 218.125 128.125 C218.785 128.125 219.445 128.125 220.125 128.125 C220.455 129.445 220.785 130.765 221.125 132.125 C222.05119141 132.19847656 222.05119141 132.19847656 222.99609375 132.2734375 C228.85978159 132.79108422 234.40372775 133.74082123 240.125 135.125 C240.125 135.785 240.125 136.445 240.125 137.125 C240.88425781 137.25777344 241.64351563 137.39054688 242.42578125 137.52734375 C243.41964844 137.70394531 244.41351563 137.88054687 245.4375 138.0625 C246.42363281 138.23652344 247.40976562 138.41054687 248.42578125 138.58984375 C251.125 139.125 251.125 139.125 254.125 140.125 C254.125 140.785 254.125 141.445 254.125 142.125 C254.94291016 142.27195313 254.94291016 142.27195313 255.77734375 142.421875 C264.21990882 144.09595628 271.14176183 147.34839519 278.328125 152.01953125 C280.4979157 153.35442422 282.71862577 154.29780886 285.125 155.125 C285.125 155.785 285.125 156.445 285.125 157.125 C286.7028125 157.4653125 286.7028125 157.4653125 288.3125 157.8125 C292.34687716 158.96864416 294.29152331 161.00817565 297.125 164.125 C298.28049036 165.11733084 299.44787152 166.09593545 300.625 167.0625 C303.89954113 169.83271918 306.47195611 172.75491722 309.125 176.125 C309.846875 176.929375 310.56875 177.73375 311.3125 178.5625 C313.55371307 181.73111159 314.24005657 184.36399041 315.125 188.125 C315.785 188.125 316.445 188.125 317.125 188.125 C318.72654139 193.7685268 319.43897378 198.77139937 319.375 204.625 C319.38273437 205.33269531 319.39046875 206.04039062 319.3984375 206.76953125 C319.37987843 211.84543696 318.5105165 216.24270376 317.125 221.125 C316.465 221.125 315.805 221.125 315.125 221.125 C314.815625 222.3315625 314.815625 222.3315625 314.5 223.5625 C312.71792361 228.17969793 310.26328288 232.28742583 307.125 236.125 C306.465 236.125 305.805 236.125 305.125 236.125 C305.125 236.785 305.125 237.445 305.125 238.125 C304.465 238.125 303.805 238.125 303.125 238.125 C302.795 239.115 302.465 240.105 302.125 241.125 C300.34765625 242.73046875 300.34765625 242.73046875 298.1875 244.3125 C297.47722656 244.84230469 296.76695312 245.37210938 296.03515625 245.91796875 C294.125 247.125 294.125 247.125 292.125 247.125 C292.125 247.785 292.125 248.445 292.125 249.125 C291.135 249.125 290.145 249.125 289.125 249.125 C289.125 249.785 289.125 250.445 289.125 251.125 C280.90107099 256.83355146 269.00665052 264.2230009 259.125 266.125 C258.2175 266.310625 257.31 266.49625 256.375 266.6875 C255.6325 266.831875 254.89 266.97625 254.125 267.125 C250.82338189 260.95450014 248.125 255.27147064 248.125 248.125 C247.465 248.455 246.805 248.785 246.125 249.125 C246.310625 249.90875 246.49625 250.6925 246.6875 251.5 C247.125 254.125 247.125 254.125 246.125 256.125 C246.2200739 258.1730428 246.2200739 258.1730428 247.125 260.125 C249.1087767 261.40936734 249.1087767 261.40936734 251.125 262.125 C251.125 263.445 251.125 264.765 251.125 266.125 C250.135 266.455 249.145 266.785 248.125 267.125 C247.465 267.785 246.805 268.445 246.125 269.125 C245.135 269.125 244.145 269.125 243.125 269.125 C243.125 267.805 243.125 266.485 243.125 265.125 C244.445 264.795 245.765 264.465 247.125 264.125 C246.795 263.465 246.465 262.805 246.125 262.125 C245.135 261.795 244.145 261.465 243.125 261.125 C242.795 262.115 242.465 263.105 242.125 264.125 C241.795 262.805 241.465 261.485 241.125 260.125 C241.785 260.125 242.445 260.125 243.125 260.125 C243.125 259.135 243.125 258.145 243.125 257.125 C242.135 257.125 241.145 257.125 240.125 257.125 C240.125 257.785 240.125 258.445 240.125 259.125 C239.465 259.125 238.805 259.125 238.125 259.125 C236.125 257.125 236.125 257.125 235.125 255.125 C234.465 255.125 233.805 255.125 233.125 255.125 C232.815625 255.90875 232.50625 256.6925 232.1875 257.5 C231.125 260.125 231.125 260.125 230.125 262.125 C229.465 262.125 228.805 262.125 228.125 262.125 C228.125 263.115 228.125 264.105 228.125 265.125 C227.81411632 266.79599977 227.48419668 268.46371537 227.125 270.125 C226.465 270.125 225.805 270.125 225.125 270.125 C225.455 271.775 225.785 273.425 226.125 275.125 C224.475 275.455 222.825 275.785 221.125 276.125 C220.85726981 280.23019631 221.10340679 283.45711821 222.375 287.375 C231.98356406 317.52130052 236.12839509 356.01731399 222.125 385.125 C221.81820313 385.80175781 221.51140625 386.47851562 221.1953125 387.17578125 C216.66202434 396.22229877 206.70539064 402.32760052 197.70874023 406.26733398 C193.20849829 407.76117788 188.82433078 407.66310722 184.125 407.5625 C183.19171875 407.56958984 182.2584375 407.57667969 181.296875 407.58398438 C175.03322888 407.52712167 169.93018503 406.41972716 164.125 404.125 C163.04089844 403.73957031 161.95679688 403.35414063 160.83984375 402.95703125 C159.92332031 402.62058594 159.00679688 402.28414063 158.0625 401.9375 C157.12277344 401.59332031 156.18304688 401.24914062 155.21484375 400.89453125 C154.52519531 400.64058594 153.83554687 400.38664062 153.125 400.125 C153.125 399.465 153.125 398.805 153.125 398.125 C152.568125 398.00125 152.01125 397.8775 151.4375 397.75 C148.90385636 397.06523145 146.54578968 396.13366237 144.125 395.125 C144.125 394.465 144.125 393.805 144.125 393.125 C143.57199219 393.01929688 143.01898438 392.91359375 142.44921875 392.8046875 C139.6529579 391.98695744 137.4412907 390.7367413 134.9375 389.25 C134.05707031 388.73695313 133.17664063 388.22390625 132.26953125 387.6953125 C130.125 386.125 130.125 386.125 129.125 383.125 C127.80011887 382.75951555 126.46481486 382.4312434 125.125 382.125 C122.875 380.875 122.875 380.875 121.125 379.125 C120.875 376.4375 120.875 376.4375 121.125 374.125 C119.475 373.795 117.825 373.465 116.125 373.125 C116.125 371.475 116.125 369.825 116.125 368.125 C116.785 368.125 117.445 368.125 118.125 368.125 C118.125 368.785 118.125 369.445 118.125 370.125 C119.115 369.465 120.105 368.805 121.125 368.125 C121.125 367.135 121.125 366.145 121.125 365.125 C119.805 365.455 118.485 365.785 117.125 366.125 C117.125 365.465 117.125 364.805 117.125 364.125 C118.445 363.795 119.765 363.465 121.125 363.125 C120.465 360.815 119.805 358.505 119.125 356.125 C119.785 356.125 120.445 356.125 121.125 356.125 C121.125 355.465 121.125 354.805 121.125 354.125 C120.135 354.455 119.145 354.785 118.125 355.125 C117.135 355.125 116.145 355.125 115.125 355.125 C113.43701173 356.56250191 113.43701173 356.56250191 112.125 358.125 C111.795 357.135 111.465 356.145 111.125 355.125 C111.785 355.125 112.445 355.125 113.125 355.125 C113.125 354.465 113.125 353.805 113.125 353.125 C112.465 353.125 111.805 353.125 111.125 353.125 C111.125 352.465 111.125 351.805 111.125 351.125 C109.805 351.125 108.485 351.125 107.125 351.125 C107.455 352.115 107.785 353.105 108.125 354.125 C106.475 354.455 104.825 354.785 103.125 355.125 C103.125 356.115 103.125 357.105 103.125 358.125 C102.465 358.455 101.805 358.785 101.125 359.125 C100.361875 358.320625 99.59875 357.51625 98.8125 356.6875 C96.33069102 353.95700976 96.33069102 353.95700976 93.125 353.125 C92.795 352.465 92.465 351.805 92.125 351.125 C91.485625 351.764375 90.84625 352.40375 90.1875 353.0625 C89.73890625 353.50851562 89.2903125 353.95453125 88.828125 354.4140625 C87.49518475 355.75311716 86.17480812 357.10468059 84.859375 358.4609375 C84.06015625 359.27820313 83.2609375 360.09546875 82.4375 360.9375 C81.67050781 361.72769531 80.90351563 362.51789063 80.11328125 363.33203125 C78.125 365.125 78.125 365.125 76.125 365.125 C76.125 365.785 76.125 366.445 76.125 367.125 C74.51451606 368.60522421 72.83397882 370.00967453 71.125 371.375 C69.62066406 372.57962891 69.62066406 372.57962891 68.0859375 373.80859375 C65.0315116 376.19813802 61.95641273 378.55050408 58.83203125 380.84765625 C57.32810683 381.97301846 55.87774541 383.16921315 54.4375 384.375 C52.07495664 386.16287065 49.91655255 387.16789627 47.125 388.125 C47.125 388.785 47.125 389.445 47.125 390.125 C45.3615625 390.99125 45.3615625 390.99125 43.5625 391.875 C40.72922843 393.2840871 37.97570692 394.7682675 35.25 396.375 C32.125 398.125 32.125 398.125 30.125 398.125 C30.125 398.785 30.125 399.445 30.125 400.125 C20.71497722 403.56919134 20.71497722 403.56919134 16.125 403.125 C16.125 403.785 16.125 404.445 16.125 405.125 C6.05547003 407.95153473 -4.91042738 408.68915444 -14.875 405.125 C-15.205 404.465 -15.535 403.805 -15.875 403.125 C-16.62265625 402.98835938 -17.3703125 402.85171875 -18.140625 402.7109375 C-21.37633148 402.01757183 -23.04805843 400.79944682 -25.625 398.75 C-26.40359375 398.14414062 -27.1821875 397.53828125 -27.984375 396.9140625 C-29.875 395.125 -29.875 395.125 -30.875 392.125 C-31.865 391.795 -32.855 391.465 -33.875 391.125 C-34.57437532 389.80852881 -35.24229133 388.47477849 -35.875 387.125 C-36.535 386.795 -37.195 386.465 -37.875 386.125 C-38.875 384.015625 -38.875 384.015625 -39.875 381.375 C-40.37 380.08335937 -40.37 380.08335937 -40.875 378.765625 C-41.37 377.45851563 -41.37 377.45851563 -41.875 376.125 C-42.21273437 375.41085937 -42.55046875 374.69671875 -42.8984375 373.9609375 C-44.40862414 369.57535551 -44.89506067 365.08642778 -45.5 360.5 C-45.70109375 359.09814453 -45.70109375 359.09814453 -45.90625 357.66796875 C-47.4134176 346.51800438 -46.82258561 336.06825961 -45.375 324.9375 C-45.23191406 323.79474609 -45.08882813 322.65199219 -44.94140625 321.47460938 C-44.59194735 318.69058681 -44.23638792 315.90749475 -43.875 313.125 C-38.07640805 313.69310529 -32.89813406 314.86179735 -27.375 316.6875 C-26.64796875 316.92146484 -25.9209375 317.15542969 -25.171875 317.39648438 C-23.40419739 317.96632781 -21.63929031 318.54475404 -19.875 319.125 C-19.88547363 320.1672876 -19.89594727 321.2095752 -19.90673828 322.28344727 C-19.94349154 326.22530554 -19.9660973 330.16714939 -19.98486328 334.10913086 C-19.99479692 335.80121423 -20.00834843 337.49328102 -20.02587891 339.18530273 C-20.1352624 350.03035465 -19.66092474 360.41247175 -17.875 371.125 C-17.215 371.125 -16.555 371.125 -15.875 371.125 C-15.2253125 372.5790625 -15.2253125 372.5790625 -14.5625 374.0625 C-13.1735139 377.40231765 -13.1735139 377.40231765 -9.875 378.125 C-9.875 378.785 -9.875 379.445 -9.875 380.125 C-3.275 380.125 3.325 380.125 10.125 380.125 C10.125 379.465 10.125 378.805 10.125 378.125 C10.9603125 377.86976563 10.9603125 377.86976563 11.8125 377.609375 C15.89862991 376.31175266 19.7471079 374.90470217 23.5625 372.9375 C27.125 371.125 27.125 371.125 29.125 371.125 C29.455 370.465 29.785 369.805 30.125 369.125 C35.53676471 365.125 35.53676471 365.125 39.125 365.125 C39.125 364.465 39.125 363.805 39.125 363.125 C40.775 362.465 42.425 361.805 44.125 361.125 C44.125 360.465 44.125 359.805 44.125 359.125 C44.785 359.125 45.445 359.125 46.125 359.125 C46.125 358.465 46.125 357.805 46.125 357.125 C49.00271795 355.20652136 52.01126628 353.62420512 55.125 352.125 C55.125 351.465 55.125 350.805 55.125 350.125 C55.785 350.125 56.445 350.125 57.125 350.125 C57.125 349.465 57.125 348.805 57.125 348.125 C58.115 348.125 59.105 348.125 60.125 348.125 C60.785 346.805 61.445 345.485 62.125 344.125 C62.785 344.125 63.445 344.125 64.125 344.125 C64.125 343.465 64.125 342.805 64.125 342.125 C64.785 342.125 65.445 342.125 66.125 342.125 C66.785 340.805 67.445 339.485 68.125 338.125 C68.785 338.125 69.445 338.125 70.125 338.125 C70.785 336.805 71.445 335.485 72.125 334.125 C72.785 334.125 73.445 334.125 74.125 334.125 C73.485625 333.031875 72.84625 331.93875 72.1875 330.8125 C70.85898675 328.5411709 69.96686703 326.65060108 69.125 324.125 C68.465 324.125 67.805 324.125 67.125 324.125 C66.11148336 322.46651823 65.11379205 320.79834039 64.125 319.125 C63.526875 318.5475 62.92875 317.97 62.3125 317.375 C59.60575544 314.59091989 57.66815031 311.5151542 55.58984375 308.24609375 C54.23968023 306.29105697 52.81632358 304.7779933 51.125 303.125 C50.45833333 301.79166667 49.79166667 300.45833333 49.125 299.125 C48.63 298.63 48.135 298.135 47.625 297.625 C46.125 296.125 46.125 296.125 45.375 294 C44.9625 293.38125 44.55 292.7625 44.125 292.125 C40.59986472 291.38323993 40.59986472 291.38323993 37.125 291.125 C36.795 290.795 36.465 290.465 36.125 290.125 C33.91995331 289.83618538 31.70684819 289.60854387 29.4921875 289.40625 C28.82212677 289.34344849 28.15206604 289.28064697 27.46170044 289.21594238 C25.30816662 289.01474707 23.15414218 288.81956458 21 288.625 C18.86738179 288.42950195 16.73489717 288.23270078 14.60256958 288.03405762 C12.65179141 287.85277377 10.70065934 287.67531013 8.74951172 287.49804688 C-0.6617862 286.5294046 -0.6617862 286.5294046 -4.875 285.125 C-6.2680625 284.76008688 -7.66409448 284.40637021 -9.0625 284.0625 C-10.320625 283.753125 -11.57875 283.44375 -12.875 283.125 C-12.875 284.445 -12.875 285.765 -12.875 287.125 C-13.535 287.125 -14.195 287.125 -14.875 287.125 C-14.875 287.785 -14.875 288.445 -14.875 289.125 C-14.215 289.455 -13.555 289.785 -12.875 290.125 C-13.535 290.125 -14.195 290.125 -14.875 290.125 C-15.00777344 291.07761719 -15.14054687 292.03023438 -15.27734375 293.01171875 C-15.45394531 294.26597656 -15.63054687 295.52023437 -15.8125 296.8125 C-15.98652344 298.05386719 -16.16054687 299.29523438 -16.33984375 300.57421875 C-16.77322897 303.44974548 -17.27149282 306.28144813 -17.875 309.125 C-18.535 309.125 -19.195 309.125 -19.875 309.125 C-19.854375 310.094375 -19.83375 311.06375 -19.8125 312.0625 C-19.875 315.125 -19.875 315.125 -20.875 316.125 C-24.94577118 316.47392324 -28.07475907 315.53904314 -31.875 314.125 C-31.215 313.795 -30.555 313.465 -29.875 313.125 C-29.875 312.465 -29.875 311.805 -29.875 311.125 C-30.865 311.785 -31.855 312.445 -32.875 313.125 C-35.875 312.125 -35.875 312.125 -37.875 311.125 C-38.865 310.795 -39.855 310.465 -40.875 310.125 C-40.235625 309.691875 -39.59625 309.25875 -38.9375 308.8125 C-36.60753997 307.21260823 -36.60753997 307.21260823 -35.875 304.125 C-35.545 305.445 -35.215 306.765 -34.875 308.125 C-34.215 308.125 -33.555 308.125 -32.875 308.125 C-32.875 307.465 -32.875 306.805 -32.875 306.125 C-31.5625 304.5 -31.5625 304.5 -29.875 303.125 C-28.885 303.125 -27.895 303.125 -26.875 303.125 C-27.205 299.165 -27.535 295.205 -27.875 291.125 C-29.195 291.455 -30.515 291.785 -31.875 292.125 C-32.205 290.475 -32.535 288.825 -32.875 287.125 C-33.535 287.125 -34.195 287.125 -34.875 287.125 C-36 284.875 -36 284.875 -36.875 282.125 C-35.9296875 279.953125 -35.9296875 279.953125 -34.875 278.125 C-35.63683594 278.01542969 -36.39867188 277.90585937 -37.18359375 277.79296875 C-42.92664154 276.91107752 -48.30299242 275.83134947 -53.765625 273.84765625 C-55.95048909 273.099138 -58.12295444 272.56960955 -60.375 272.0625 C-61.53 271.753125 -62.685 271.44375 -63.875 271.125 C-64.205 270.465 -64.535 269.805 -64.875 269.125 C-67.82181017 268.26174733 -70.79572505 267.65070581 -73.796875 267.00390625 C-76.92240321 266.11146482 -79.14921449 264.86251589 -81.875 263.125 C-83.85951771 262.41356912 -85.85702112 261.73508664 -87.875 261.125 C-87.875 260.465 -87.875 259.805 -87.875 259.125 C-89.0815625 258.7846875 -89.0815625 258.7846875 -90.3125 258.4375 C-100.99450093 254.50202597 -111.18779121 247.49049192 -118.875 239.125 C-119.720625 238.279375 -120.56625 237.43375 -121.4375 236.5625 C-122.241875 235.758125 -123.04625 234.95375 -123.875 234.125 C-124.596875 233.485625 -125.31875 232.84625 -126.0625 232.1875 C-128.27305198 229.67204429 -129.00131325 227.32851809 -129.875 224.125 C-130.535 224.125 -131.195 224.125 -131.875 224.125 C-136.56756391 208.60183101 -137.75801196 196.09596963 -129.9375 181.1875 C-127.95266437 177.59362428 -125.82018381 174.97180607 -122.875 172.125 C-122.38 171.135 -122.38 171.135 -121.875 170.125 C-120.885 170.125 -119.895 170.125 -118.875 170.125 C-118.51728516 169.25488281 -118.51728516 169.25488281 -118.15234375 168.3671875 C-114.15002657 161.3417133 -105.37136283 157.03764459 -98.4140625 153.44140625 C-96.23184582 152.31001083 -94.15498229 151.09840872 -92.0625 149.8125 C-88.89020493 148.13304967 -86.4253099 147.4713717 -82.875 147.125 C-82.875 146.465 -82.875 145.805 -82.875 145.125 C-79.36723216 143.52144899 -76.73145121 142.90463136 -72.875 143.125 C-64.46710526 159.03994361 -64.46710526 159.03994361 -64.875 167.125 C-65.46667969 167.30675781 -66.05835937 167.48851562 -66.66796875 167.67578125 C-71.11339842 169.08990651 -74.93961032 170.5723148 -78.875 173.125 C-79.803125 173.57875 -80.73125 174.0325 -81.6875 174.5 C-84.99369895 176.18551319 -88.04234975 178.10122396 -91.140625 180.13671875 C-92.875 181.125 -92.875 181.125 -94.875 181.125 C-94.875 181.785 -94.875 182.445 -94.875 183.125 C-95.8340625 183.558125 -95.8340625 183.558125 -96.8125 184 C-99.02706079 184.95323451 -99.02706079 184.95323451 -99.875 187.125 C-100.865 187.455 -101.855 187.785 -102.875 188.125 C-103.57651152 189.4403341 -104.24025925 190.77617592 -104.875 192.125 C-105.37 192.558125 -105.865 192.99125 -106.375 193.4375 C-108.63852255 195.98396287 -109.0764695 198.86945256 -109.875 202.125 C-110.535 202.125 -111.195 202.125 -111.875 202.125 C-111.545 203.115 -111.215 204.105 -110.875 205.125 C-111.205 205.785 -111.535 206.445 -111.875 207.125 C-111.215 207.125 -110.555 207.125 -109.875 207.125 C-109.69324219 207.83527344 -109.51148437 208.54554688 -109.32421875 209.27734375 C-109.07285156 210.19644531 -108.82148437 211.11554688 -108.5625 212.0625 C-108.31886719 212.97902344 -108.07523438 213.89554688 -107.82421875 214.83984375 C-107.51097656 215.59394531 -107.19773437 216.34804688 -106.875 217.125 C-105.885 217.455 -104.895 217.785 -103.875 218.125 C-102.18788577 219.7709651 -100.5204378 221.43737149 -98.875 223.125 C-98.215 223.455 -97.555 223.785 -96.875 224.125 C-96.875 224.785 -96.875 225.445 -96.875 226.125 C-96.09125 226.434375 -95.3075 226.74375 -94.5 227.0625 C-91.875 228.125 -91.875 228.125 -89.875 229.125 C-89.875 229.785 -89.875 230.445 -89.875 231.125 C-88.988125 231.393125 -88.10125 231.66125 -87.1875 231.9375 C-83.875 233.125 -83.875 233.125 -81.5625 234.5625 C-77.86358137 236.71303409 -73.95094305 237.87291292 -69.875 239.125 C-69.875 239.785 -69.875 240.445 -69.875 241.125 C-68.6065625 241.310625 -68.6065625 241.310625 -67.3125 241.5 C-63.72263202 242.15270327 -60.36675125 243.07747463 -56.875 244.125 C-56.875 244.785 -56.875 245.445 -56.875 246.125 C-55.4209375 246.310625 -55.4209375 246.310625 -53.9375 246.5 C-42.92680026 248.08894244 -42.92680026 248.08894244 -38.90234375 250.12109375 C-36.65296917 251.2349459 -34.5794338 251.74467539 -32.125 252.25 C-31.32578125 252.41757812 -30.5265625 252.58515625 -29.703125 252.7578125 C-29.09984375 252.87898437 -28.4965625 253.00015625 -27.875 253.125 C-27.318125 251.3615625 -27.318125 251.3615625 -26.75 249.5625 C-24.44571013 242.62757976 -21.62334631 235.8925157 -18.875 229.125 C-18.51277344 228.21878906 -18.15054688 227.31257812 -17.77734375 226.37890625 C-15.96249049 221.84570135 -14.0724239 217.47893547 -11.75 213.1875 C-8.21319878 206.12750063 -8.6214673 200.54840183 -10.875 193.125 C-11.535 193.125 -12.195 193.125 -12.875 193.125 C-13.22111328 192.14273438 -13.22111328 192.14273438 -13.57421875 191.140625 C-15.77653925 184.97760954 -18.17370497 178.93130714 -20.71875 172.90234375 C-21.92493124 170.00506382 -23.03993314 167.08759669 -24.1171875 164.140625 C-25.37098154 160.80579137 -26.74468473 157.51894631 -28.10546875 154.2265625 C-28.875 152.125 -28.875 152.125 -28.875 150.125 C-29.535 150.125 -30.195 150.125 -30.875 150.125 C-30.978125 148.825625 -31.08125 147.52625 -31.1875 146.1875 C-31.7470755 141.19017988 -33.19469998 136.84020313 -34.875 132.125 C-37.54589538 124.24000606 -39.53540716 116.43831764 -40.92382812 108.24194336 C-41.25573328 104.89668896 -41.25573328 104.89668896 -42.875 102.125 C-46.90312561 77.94360314 -48.00849651 53.01753141 -41.875 29.125 C-41.215 29.125 -40.555 29.125 -39.875 29.125 C-39.648125 28.135 -39.42125 27.145 -39.1875 26.125 C-37.57577894 20.46095169 -34.3559774 14.99656447 -29.875 11.125 C-29.215 11.125 -28.555 11.125 -27.875 11.125 C-27.875 10.465 -27.875 9.805 -27.875 9.125 C-26.225 8.465 -24.575 7.805 -22.875 7.125 C-22.875 6.465 -22.875 5.805 -22.875 5.125 C-19.905 4.465 -16.935 3.805 -13.875 3.125 C-13.875 2.465 -13.875 1.805 -13.875 1.125 C-9.23572164 -0.04879332 -4.75021024 -0.02340005 0 0 Z M211.125 92.125 C211.125 93.115 211.125 94.105 211.125 95.125 C211.785 95.125 212.445 95.125 213.125 95.125 C213.125 94.135 213.125 93.145 213.125 92.125 C212.465 92.125 211.805 92.125 211.125 92.125 Z M91.125 94.125 C90.07855934 95.76290712 89.0851817 97.43508021 88.125 99.125 C87.42375 99.805625 86.7225 100.48625 86 101.1875 C83.97252734 103.28255508 83.78544466 104.38887214 83.125 107.125 C82.135 107.455 81.145 107.785 80.125 108.125 C78.24947511 110.71763734 76.55655039 113.26189923 75.125 116.125 C86.675 116.125 98.225 116.125 110.125 116.125 C105.65084795 109.33533849 105.65084795 109.33533849 100.9375 102.75 C100.46957031 102.12351562 100.00164062 101.49703125 99.51953125 100.8515625 C98.14944894 99.09086077 98.14944894 99.09086077 96.51171875 97.5234375 C95.125 96.125 95.125 96.125 94.125 94.125 C93.135 94.125 92.145 94.125 91.125 94.125 Z M216.125 94.125 C217.125 96.125 217.125 96.125 217.125 96.125 Z M207.125 97.125 C207.455 98.115 207.785 99.105 208.125 100.125 C208.785 100.125 209.445 100.125 210.125 100.125 C210.125 99.135 210.125 98.145 210.125 97.125 C209.135 97.125 208.145 97.125 207.125 97.125 Z M207.125 102.125 C207.125 103.115 207.125 104.105 207.125 105.125 C208.115 105.125 209.105 105.125 210.125 105.125 C210.125 104.465 210.125 103.805 210.125 103.125 C209.135 102.795 208.145 102.465 207.125 102.125 Z M201.125 112.125 C201.125 113.115 201.125 114.105 201.125 115.125 C202.445 115.455 203.765 115.785 205.125 116.125 C205.455 114.805 205.785 113.485 206.125 112.125 C204.475 112.125 202.825 112.125 201.125 112.125 Z M205.125 116.125 C206.125 118.125 206.125 118.125 206.125 118.125 Z M208.125 116.125 C208.125 116.785 208.125 117.445 208.125 118.125 C208.785 118.125 209.445 118.125 210.125 118.125 C210.125 117.465 210.125 116.805 210.125 116.125 C209.465 116.125 208.805 116.125 208.125 116.125 Z M210.125 118.125 C210.125 118.785 210.125 119.445 210.125 120.125 C209.465 120.125 208.805 120.125 208.125 120.125 C208.125 120.785 208.125 121.445 208.125 122.125 C208.785 122.125 209.445 122.125 210.125 122.125 C210.785 123.445 211.445 124.765 212.125 126.125 C213.445 125.795 214.765 125.465 216.125 125.125 C214.89565985 121.43697956 213.18640622 120.40143027 210.125 118.125 Z M55.125 143.125 C54.795 144.775 54.465 146.425 54.125 148.125 C53.465 148.125 52.805 148.125 52.125 148.125 C50.65190889 150.22519014 49.31190365 152.30267729 48 154.5 C47.62746094 155.10328125 47.25492188 155.7065625 46.87109375 156.328125 C44.7977176 159.49845777 44.7977176 159.49845777 44.125 163.125 C43.465 163.125 42.805 163.125 42.125 163.125 C36.74571008 171.24178041 36.74571008 171.24178041 34.125 180.125 C33.465 180.125 32.805 180.125 32.125 180.125 C30.78222268 182.8913534 29.45244772 185.66376211 28.125 188.4375 C27.7434375 189.22318359 27.361875 190.00886719 26.96875 190.81835938 C26.6078125 191.57568359 26.246875 192.33300781 25.875 193.11328125 C25.53984375 193.80977783 25.2046875 194.50627441 24.859375 195.22387695 C23.94483234 197.25173938 23.94483234 197.25173938 24.125 200.125 C23.465 200.125 22.805 200.125 22.125 200.125 C21.10959888 204.22723585 21.10959888 204.22723585 22.125 208.125 C22.785 208.125 23.445 208.125 24.125 208.125 C24.310625 209.48625 24.310625 209.48625 24.5 210.875 C25.04609677 213.71470323 25.69763803 215.65090591 27.125 218.125 C27.785 218.125 28.445 218.125 29.125 218.125 C29.24875 218.8675 29.3725 219.61 29.5 220.375 C30.07986701 222.92641485 30.86208739 224.8517573 32.125 227.125 C32.785 227.125 33.445 227.125 34.125 227.125 C34.24875 227.8675 34.3725 228.61 34.5 229.375 C35.07986701 231.92641485 35.86208739 233.8517573 37.125 236.125 C37.785 236.125 38.445 236.125 39.125 236.125 C39.228125 236.84300781 39.33125 237.56101562 39.4375 238.30078125 C40.20138339 241.43877948 41.40910875 243.5860478 43.125 246.3125 C46.11893939 251.11287879 46.11893939 251.11287879 47.125 253.125 C47.785 253.125 48.445 253.125 49.125 253.125 C49.434375 254.07375 49.74375 255.0225 50.0625 256 C50.99894742 258.98580408 50.99894742 258.98580408 52.125 261.125 C52.785 261.125 53.445 261.125 54.125 261.125 C54.785 262.775 55.445 264.425 56.125 266.125 C64.19320215 267.01350156 72.1603521 267.27206253 80.2734375 267.2578125 C81.48899323 267.25876923 82.70454895 267.25972595 83.9569397 267.26071167 C86.50661267 267.26138793 89.05628743 267.2595726 91.60595703 267.25537109 C95.5094791 267.24998693 99.41288758 267.25534926 103.31640625 267.26171875 C105.80208359 267.26105842 108.28776085 267.25977818 110.7734375 267.2578125 C111.93805511 267.25983673 113.10267273 267.26186096 114.30258179 267.26394653 C115.93050156 267.25921829 115.93050156 267.25921829 117.59130859 267.25439453 C118.54186127 267.25359894 119.49241394 267.25280334 120.47177124 267.25198364 C123.14325933 267.12412611 125.54341343 266.82609762 128.125 266.125 C129.69576866 264.24918844 129.69576866 264.24918844 130.75 261.875 C131.36294922 260.65876953 131.36294922 260.65876953 131.98828125 259.41796875 C132.36339844 258.66128906 132.73851562 257.90460938 133.125 257.125 C133.723125 256.155625 134.32125 255.18625 134.9375 254.1875 C136.29132148 252.2327807 136.29132148 252.2327807 136.125 250.125 C137.115 249.795 138.105 249.465 139.125 249.125 C140.77320195 246.52257586 141.125 245.26251221 141.125 242.125 C141.785 242.125 142.445 242.125 143.125 242.125 C145.3263866 238.32072508 145.3263866 238.32072508 146.125 234.125 C146.785 234.125 147.445 234.125 148.125 234.125 C150.48410353 229.8612719 150.48410353 229.8612719 151.125 225.125 C151.785 225.125 152.445 225.125 153.125 225.125 C153.45113281 224.40054688 153.77726563 223.67609375 154.11328125 222.9296875 C157.8733731 214.61090022 157.8733731 214.61090022 159.9375 210.625 C161.33952841 208.13464437 161.33952841 208.13464437 161.125 205.125 C161.785 205.125 162.445 205.125 163.125 205.125 C163.125 203.805 163.125 202.485 163.125 201.125 C162.465 201.125 161.805 201.125 161.125 201.125 C161.00125 200.403125 160.8775 199.68125 160.75 198.9375 C160.1345069 196.16778106 159.24055626 193.7279646 158.125 191.125 C157.465 191.125 156.805 191.125 156.125 191.125 C156.00125 190.3825 155.8775 189.64 155.75 188.875 C155.17013299 186.32358515 154.38791261 184.3982427 153.125 182.125 C152.465 182.125 151.805 182.125 151.125 182.125 C151.00125 181.3825 150.8775 180.64 150.75 179.875 C150.17013299 177.32358515 149.38791261 175.3982427 148.125 173.125 C147.465 173.125 146.805 173.125 146.125 173.125 C146.00125 172.3825 145.8775 171.64 145.75 170.875 C145.17013299 168.32358515 144.38791261 166.3982427 143.125 164.125 C142.465 164.125 141.805 164.125 141.125 164.125 C140.815625 163.17625 140.50625 162.2275 140.1875 161.25 C139.25105258 158.26419592 139.25105258 158.26419592 138.125 156.125 C137.465 156.125 136.805 156.125 136.125 156.125 C135.815625 155.17625 135.50625 154.2275 135.1875 153.25 C134.25105258 150.26419592 134.25105258 150.26419592 133.125 148.125 C132.465 148.125 131.805 148.125 131.125 148.125 C130.135 145.65 130.135 145.65 129.125 143.125 C122.21137076 141.83561679 115.32222262 141.98109029 108.30859375 141.9921875 C106.96533694 141.99151274 105.62208025 141.99054127 104.27882385 141.98928833 C101.47403797 141.98781999 98.66928409 141.98993837 95.86450195 141.99462891 C92.28142219 142.0003312 88.69841727 141.99703854 85.11534023 141.99105644 C82.34515322 141.98743217 79.57498378 141.98859789 76.80479622 141.99118423 C74.84507829 141.99216916 72.88535965 141.9891493 70.92564392 141.98605347 C69.72742508 141.98920563 68.52920624 141.99235779 67.29467773 141.99560547 C65.72084572 141.99679886 65.72084572 141.99679886 64.11521912 141.99801636 C61.04645836 142.12833538 58.1410338 142.55751663 55.125 143.125 Z M160.125 145.125 C160.455 146.445 160.785 147.765 161.125 149.125 C161.785 149.125 162.445 149.125 163.125 149.125 C163.24875 149.8675 163.3725 150.61 163.5 151.375 C164.07986701 153.92641485 164.86208739 155.8517573 166.125 158.125 C166.785 158.125 167.445 158.125 168.125 158.125 C168.4653125 159.300625 168.4653125 159.300625 168.8125 160.5 C170.53160933 165.24801625 172.80584721 169.64602552 175.125 174.125 C176.115 174.125 177.105 174.125 178.125 174.125 C178.63257862 172.71103098 179.13074925 171.29368271 179.625 169.875 C179.9034375 169.08609375 180.181875 168.2971875 180.46875 167.484375 C181.30364861 164.89087262 181.30364861 164.89087262 181.125 161.125 C181.785 161.125 182.445 161.125 183.125 161.125 C183.63059908 159.68945975 184.1292749 158.2514798 184.625 156.8125 C184.9034375 156.01199219 185.181875 155.21148437 185.46875 154.38671875 C186.26433107 152.03730578 186.26433107 152.03730578 186.125 149.125 C178.39440505 147.76790496 170.98046636 146.80581627 163.125 147.125 C163.125 146.465 163.125 145.805 163.125 145.125 C162.135 145.125 161.145 145.125 160.125 145.125 Z M17.125 145.125 C17.125 145.785 17.125 146.445 17.125 147.125 C16.51914063 147.10179687 15.91328125 147.07859375 15.2890625 147.0546875 C8.97624971 146.91871922 3.26068071 147.66288034 -2.875 149.125 C-2.875 150.115 -2.875 151.105 -2.875 152.125 C-2.215 152.125 -1.555 152.125 -0.875 152.125 C-0.74222656 152.82367188 -0.60945312 153.52234375 -0.47265625 154.2421875 C-0.29605469 155.15226563 -0.11945313 156.06234375 0.0625 157 C0.23652344 157.90492188 0.41054687 158.80984375 0.58984375 159.7421875 C1.02463701 162.12456317 1.02463701 162.12456317 2.125 164.125 C2.785 164.125 3.445 164.125 4.125 164.125 C4.269375 165.218125 4.41375 166.31125 4.5625 167.4375 C5.00788104 171.05622987 5.00788104 171.05622987 6.125 174.125 C7.115 174.125 8.105 174.125 9.125 174.125 C11.48410353 169.8612719 11.48410353 169.8612719 12.125 165.125 C12.785 165.125 13.445 165.125 14.125 165.125 C16.3263866 161.32072508 16.3263866 161.32072508 17.125 157.125 C17.785 157.125 18.445 157.125 19.125 157.125 C20.115 154.155 21.105 151.185 22.125 148.125 C22.785 148.125 23.445 148.125 24.125 148.125 C24.455 147.135 24.785 146.145 25.125 145.125 C23.475 145.125 21.825 145.125 20.125 145.125 C20.125 145.785 20.125 146.445 20.125 147.125 C19.465 147.125 18.805 147.125 18.125 147.125 C17.795 146.465 17.465 145.805 17.125 145.125 Z M212.125 154.125 C210.77266446 157.11675908 209.44627963 160.11940545 208.125 163.125 C207.66996094 164.1459375 207.21492188 165.166875 206.74609375 166.21875 C206.29363281 167.2603125 205.84117187 168.301875 205.375 169.375 C204.94703125 170.34953125 204.5190625 171.3240625 204.078125 172.328125 C203.12333376 175.12988945 202.93230356 177.19173202 203.125 180.125 C202.465 180.125 201.805 180.125 201.125 180.125 C200.82207031 180.86363281 200.51914062 181.60226563 200.20703125 182.36328125 C199.78808594 183.37777344 199.36914062 184.39226562 198.9375 185.4375 C198.49019531 186.53320312 198.04289062 187.62890625 197.58203125 188.7578125 C196.125 192.125 196.125 192.125 194.57421875 195.0546875 C191.81347369 200.07780647 191.81347369 200.07780647 191.41015625 205.63671875 C192.15957865 207.91511348 193.0516596 209.98261255 194.125 212.125 C194.516875 213.135625 194.90875 214.14625 195.3125 215.1875 C195.580625 215.826875 195.84875 216.46625 196.125 217.125 C196.785 217.125 197.445 217.125 198.125 217.125 C198.24230469 217.99640625 198.35960937 218.8678125 198.48046875 219.765625 C199.11802186 223.08862906 200.08715813 225.78133752 201.4375 228.875 C201.88480469 229.91785156 202.33210938 230.96070313 202.79296875 232.03515625 C203.23253906 233.05480469 203.67210937 234.07445312 204.125 235.125 C206.72063086 241.38183649 209.06707502 247.67059894 211.125 254.125 C214.50317425 254.96954356 216.79965243 255.23344919 220.125 254.125 C220.125 253.465 220.125 252.805 220.125 252.125 C220.77726562 252.07601562 221.42953125 252.02703125 222.1015625 251.9765625 C227.05779853 251.55257771 231.45519451 250.96834427 236.125 249.125 C236.125 248.465 236.125 247.805 236.125 247.125 C242.75 246.125 242.75 246.125 246.125 246.125 C247.14696992 245.14746356 248.14479625 244.1444119 249.125 243.125 C251.3125 241.9375 251.3125 241.9375 253.125 241.125 C253.125 240.465 253.125 239.805 253.125 239.125 C254.1975 239.00125 255.27 238.8775 256.375 238.75 C259.50363615 238.22856064 261.45980424 237.72411746 264.125 236.125 C264.125 235.465 264.125 234.805 264.125 234.125 C265.23875 233.939375 265.23875 233.939375 266.375 233.75 C268.92641485 233.17013299 270.8517573 232.38791261 273.125 231.125 C273.125 230.465 273.125 229.805 273.125 229.125 C274.5790625 228.7228125 274.5790625 228.7228125 276.0625 228.3125 C277.073125 227.920625 278.08375 227.52875 279.125 227.125 C279.62 225.64 279.62 225.64 280.125 224.125 C281.26195312 223.67447266 281.26195312 223.67447266 282.421875 223.21484375 C285.6614374 221.9087196 287.10935176 220.32066751 289.375 217.6875 C290.06078125 216.90503906 290.7465625 216.12257813 291.453125 215.31640625 C294.22443392 211.68391956 294.28507807 208.62436825 294.3125 204.1875 C294.32667969 203.14722656 294.34085937 202.10695312 294.35546875 201.03515625 C294.12892282 198.17453387 293.60233619 196.54829849 292.125 194.125 C291.465 194.125 290.805 194.125 290.125 194.125 C289.898125 193.403125 289.67125 192.68125 289.4375 191.9375 C286.96048615 186.62961317 283.0745805 183.92399544 278 181.22265625 C275.9398758 180.01662521 274.17174293 178.62064099 272.3125 177.125 C268.66856962 174.32898419 265.06166921 172.70735501 260.76953125 171.125 C257.9469175 170.05766009 255.23626395 168.83412474 252.5 167.5625 C243.69321549 163.18918258 243.69321549 163.18918258 234.125 162.125 C234.125 161.465 234.125 160.805 234.125 160.125 C232.39818563 159.61693553 230.66842021 159.11889533 228.9375 158.625 C227.97457031 158.3465625 227.01164062 158.068125 226.01953125 157.78125 C223.27154124 157.15822392 220.92901584 157.00197188 218.125 157.125 C217.795 156.465 217.465 155.805 217.125 155.125 C214.59766765 154.46944881 214.59766765 154.46944881 212.125 154.125 Z M6.125 233.125 C5.95484375 233.65867187 5.7846875 234.19234375 5.609375 234.7421875 C3.93330595 239.89520829 2.03512121 244.88460572 -0.10546875 249.86328125 C-1.08973861 252.35796065 -1.08973861 252.35796065 -0.875 256.125 C-1.535 256.125 -2.195 256.125 -2.875 256.125 C-2.875 257.115 -2.875 258.105 -2.875 259.125 C-2.28332031 259.17398437 -1.69164062 259.22296875 -1.08203125 259.2734375 C-0.29183594 259.34820312 0.49835938 259.42296875 1.3125 259.5 C2.08980469 259.56960938 2.86710938 259.63921875 3.66796875 259.7109375 C6.125 260.125 6.125 260.125 8.46875 261.125 C11.82661401 262.38913704 14.86184428 262.54949594 18.4375 262.75 C19.69175781 262.82476562 20.94601563 262.89953125 22.23828125 262.9765625 C23.19089844 263.02554687 24.14351562 263.07453125 25.125 263.125 C24.795 262.135 24.465 261.145 24.125 260.125 C23.465 260.125 22.805 260.125 22.125 260.125 C22.00125 259.3825 21.8775 258.64 21.75 257.875 C21.17013299 255.32358515 20.38791261 253.3982427 19.125 251.125 C18.465 251.125 17.805 251.125 17.125 251.125 C16.8775 250.09375 16.63 249.0625 16.375 248 C15.29794536 244.18414927 13.38985537 241.3807296 11.125 238.125 C10.40926473 236.47880887 9.7224304 234.81771945 9.125 233.125 C8.135 233.125 7.145 233.125 6.125 233.125 Z M175.125 233.125 C173.6643715 235.77238916 173.125 237.01948334 173.125 240.125 C172.465 240.125 171.805 240.125 171.125 240.125 C168.76589647 244.3887281 168.76589647 244.3887281 168.125 249.125 C167.465 249.125 166.805 249.125 166.125 249.125 C163.9236134 252.92927492 163.9236134 252.92927492 163.125 257.125 C162.465 257.125 161.805 257.125 161.125 257.125 C160.465 259.105 159.805 261.085 159.125 263.125 C161.48000948 263.00982579 163.83349073 262.88312022 166.1875 262.75 C168.15396484 262.64558594 168.15396484 262.64558594 170.16015625 262.5390625 C174.0351616 262.13438214 177.41633685 261.28850217 181.125 260.125 C182.78746041 259.77128502 184.45274271 259.42904678 186.125 259.125 C185.61094831 254.15583364 184.89115118 249.83473649 183.125 245.125 C182.465 245.125 181.805 245.125 181.125 245.125 C180.92583984 244.20267578 180.92583984 244.20267578 180.72265625 243.26171875 C180.54605469 242.45347656 180.36945313 241.64523437 180.1875 240.8125 C180.01347656 240.01199219 179.83945312 239.21148437 179.66015625 238.38671875 C179.12613841 235.979599 179.12613841 235.979599 178.125 233.125 C177.135 233.125 176.145 233.125 175.125 233.125 Z M240.125 251.125 C239.135 251.62 239.135 251.62 238.125 252.125 C238.125 252.785 238.125 253.445 238.125 254.125 C239.115 254.125 240.105 254.125 241.125 254.125 C240.795 253.135 240.465 252.145 240.125 251.125 Z M221.125 256.125 C221.455 257.445 221.785 258.765 222.125 260.125 C223.115 260.125 224.105 260.125 225.125 260.125 C225.125 258.805 225.125 257.485 225.125 256.125 C223.805 256.125 222.485 256.125 221.125 256.125 Z M220.125 261.125 C221.125 264.125 221.125 264.125 221.125 264.125 Z M222.125 262.125 C221.465 265.095 220.805 268.065 220.125 271.125 C219.465 271.125 218.805 271.125 218.125 271.125 C218.125 272.115 218.125 273.105 218.125 274.125 C219.445 273.795 220.765 273.465 222.125 273.125 C222.125 272.465 222.125 271.805 222.125 271.125 C223.115 270.465 224.105 269.805 225.125 269.125 C224.465 269.125 223.805 269.125 223.125 269.125 C223.125 266.815 223.125 264.505 223.125 262.125 C222.795 262.125 222.465 262.125 222.125 262.125 Z M-32.875 279.125 C-32.875 280.775 -32.875 282.425 -32.875 284.125 C-32.215 284.125 -31.555 284.125 -30.875 284.125 C-30.545 285.445 -30.215 286.765 -29.875 288.125 C-29.215 288.125 -28.555 288.125 -27.875 288.125 C-27.545 286.805 -27.215 285.485 -26.875 284.125 C-27.865 284.125 -28.855 284.125 -29.875 284.125 C-29.875 282.805 -29.875 281.485 -29.875 280.125 C-30.865 279.795 -31.855 279.465 -32.875 279.125 Z M-21.875 281.125 C-20.875 283.125 -20.875 283.125 -20.875 283.125 Z M-18.875 282.125 C-16.895 283.115 -16.895 283.115 -14.875 284.125 C-14.545 283.465 -14.215 282.805 -13.875 282.125 C-15.525 282.125 -17.175 282.125 -18.875 282.125 Z M187.125 285.125 C186.135 284.63 186.135 284.63 185.125 284.125 C185.125 284.785 185.125 285.445 185.125 286.125 C183.84625 286.08375 182.5675 286.0425 181.25 286 C172.42715734 285.98739594 163.63256323 287.27984341 154.89550781 288.41455078 C151.94702184 288.79641271 149.10196143 289.125 146.125 289.125 C146.125 289.785 146.125 290.445 146.125 291.125 C145.361875 290.898125 144.59875 290.67125 143.8125 290.4375 C141.13171447 289.82660577 141.13171447 289.82660577 139.3125 291.375 C137.84424929 293.1862603 137.84424929 293.1862603 138.125 296.125 C137.465 296.125 136.805 296.125 136.125 296.125 C135.09888051 297.77571396 134.10191857 299.44470006 133.125 301.125 C132.125 302.125 131.125 303.125 130.125 304.125 C128.77221885 306.11189731 127.43931695 308.11245218 126.125 310.125 C125.25875 311.23875 125.25875 311.23875 124.375 312.375 C122.93125394 314.03781427 122.93125394 314.03781427 123.125 316.125 C122.50625 316.3725 121.8875 316.62 121.25 316.875 C118.7177804 318.36454094 118.31781342 319.50081048 117.125 322.125 C116.14851983 323.14797922 115.14368662 324.14404252 114.125 325.125 C109.96290397 329.53446443 109.96290397 329.53446443 108.125 335.125 C109.115 335.125 110.105 335.125 111.125 335.125 C111.455 336.445 111.785 337.765 112.125 339.125 C112.785 339.125 113.445 339.125 114.125 339.125 C114.125 339.785 114.125 340.445 114.125 341.125 C115.115 341.125 116.105 341.125 117.125 341.125 C117.228125 341.764375 117.33125 342.40375 117.4375 343.0625 C117.664375 343.743125 117.89125 344.42375 118.125 345.125 C119.115 345.455 120.105 345.785 121.125 346.125 C121.62 347.61 121.62 347.61 122.125 349.125 C124.14008358 349.85823796 124.14008358 349.85823796 126.125 350.125 C126.125 351.115 126.125 352.105 126.125 353.125 C126.929375 353.351875 127.73375 353.57875 128.5625 353.8125 C131.125 355.125 131.125 355.125 132.125 357.5625 C132.125 360.125 132.125 360.125 130.875 361.9375 C129.125 363.125 129.125 363.125 126.125 363.125 C125.795 364.445 125.465 365.765 125.125 367.125 C125.125 366.465 125.125 365.805 125.125 365.125 C124.465 365.125 123.805 365.125 123.125 365.125 C122.465 368.095 121.805 371.065 121.125 374.125 C125.34667904 372.01416048 126.95753476 370.24799605 129.875 366.625 C130.67421875 365.6453125 131.4734375 364.665625 132.296875 363.65625 C134.32016352 361.37517054 134.32016352 361.37517054 134.125 359.125 C135.775 359.125 137.425 359.125 139.125 359.125 C139.785 360.445 140.445 361.765 141.125 363.125 C142.115 363.125 143.105 363.125 144.125 363.125 C144.125 363.785 144.125 364.445 144.125 365.125 C147.34614157 367.44092022 147.34614157 367.44092022 151.125 368.125 C151.125 368.785 151.125 369.445 151.125 370.125 C154.92927492 372.3263866 154.92927492 372.3263866 159.125 373.125 C159.125 373.785 159.125 374.445 159.125 375.125 C159.90746094 375.31835938 160.68992187 375.51171875 161.49609375 375.7109375 C162.50800781 375.97132813 163.51992188 376.23171875 164.5625 376.5 C165.57183594 376.75523437 166.58117187 377.01046875 167.62109375 377.2734375 C170.125 378.125 170.125 378.125 171.125 380.125 C178.1084594 382.08230177 186.09256994 383.37537762 193.125 381.125 C193.125 380.465 193.125 379.805 193.125 379.125 C193.785 379.125 194.445 379.125 195.125 379.125 C198.94525541 375.21156763 200.72362455 372.74425626 201.125 367.125 C201.785 367.125 202.445 367.125 203.125 367.125 C204.75698987 358.83029067 205.4461227 350.88459109 205.375 342.4375 C205.37113281 341.31424316 205.36726563 340.19098633 205.36328125 339.03369141 C205.26976862 329.95647282 204.5232427 321.08873444 203.125 312.125 C202.465 312.125 201.805 312.125 201.125 312.125 C201.07601562 311.29097656 201.02703125 310.45695312 200.9765625 309.59765625 C200.53182732 302.90362499 199.7781796 296.62750641 198.125 290.125 C197.465 290.125 196.805 290.125 196.125 290.125 C196.125 288.475 196.125 286.825 196.125 285.125 C192.47942349 282.69461566 190.9802593 283.40027873 187.125 285.125 Z M-24.875 288.125 C-24.875 289.775 -24.875 291.425 -24.875 293.125 C-21.905 293.62 -21.905 293.62 -18.875 294.125 C-19.205 293.135 -19.535 292.145 -19.875 291.125 C-20.535 290.795 -21.195 290.465 -21.875 290.125 C-22.205 289.465 -22.535 288.805 -22.875 288.125 C-23.535 288.125 -24.195 288.125 -24.875 288.125 Z M77.125 292.125 C77.125 296.19202105 77.24819814 296.82921021 79.5 299.875 C79.94085938 300.48859375 80.38171875 301.1021875 80.8359375 301.734375 C81.26132813 302.19328125 81.68671875 302.6521875 82.125 303.125 C82.785 303.125 83.445 303.125 84.125 303.125 C84.33125 303.846875 84.5375 304.56875 84.75 305.3125 C86.57748163 309.0505306 88.82938806 310.61746917 92.125 313.125 C95.58376801 309.84827241 99.04740711 306.28018577 101.1875 302 C102.125 300.125 102.125 300.125 104.25 298.0625 C106.47271071 296.21506673 106.47271071 296.21506673 106.125 293.125 C99.55800475 292.27656826 93.17949407 291.99938854 86.5625 292.0625 C85.19254883 292.06926758 85.19254883 292.06926758 83.79492188 292.07617188 C81.57154262 292.0878126 79.34830879 292.10416149 77.125 292.125 Z M-24.875 299.125 C-24.875 299.785 -24.875 300.445 -24.875 301.125 C-24.215 301.125 -23.555 301.125 -22.875 301.125 C-22.875 300.465 -22.875 299.805 -22.875 299.125 C-23.535 299.125 -24.195 299.125 -24.875 299.125 Z M-26.875 307.125 C-25.875 309.125 -25.875 309.125 -25.875 309.125 Z M-32.875 308.125 C-31.875 310.125 -31.875 310.125 -31.875 310.125 Z M-30.875 308.125 C-29.875 310.125 -29.875 310.125 -29.875 310.125 Z M-27.875 309.125 C-26.875 311.125 -26.875 311.125 -26.875 311.125 Z M106.125 334.125 C105.465 335.445 104.805 336.765 104.125 338.125 C104.785 338.125 105.445 338.125 106.125 338.125 C106.455 336.805 106.785 335.485 107.125 334.125 C106.795 334.125 106.465 334.125 106.125 334.125 Z M102.125 339.125 C101.465 340.445 100.805 341.765 100.125 343.125 C101.115 343.125 102.105 343.125 103.125 343.125 C102.795 341.805 102.465 340.485 102.125 339.125 Z M109.125 346.125 C109.125 346.785 109.125 347.445 109.125 348.125 C110.445 348.455 111.765 348.785 113.125 349.125 C113.455 347.475 113.785 345.825 114.125 344.125 C111.80142489 343.94009993 111.80142489 343.94009993 109.125 346.125 Z M96.125 345.125 C95.465 346.445 94.805 347.765 94.125 349.125 C95.445 348.795 96.765 348.465 98.125 348.125 C98.125 347.135 98.125 346.145 98.125 345.125 C97.465 345.125 96.805 345.125 96.125 345.125 Z M107.125 345.125 C108.125 348.125 108.125 348.125 108.125 348.125 Z M104.125 346.125 C102.48823743 348.0850281 102.48823743 348.0850281 101.125 350.125 C104.0504644 350.3486068 104.0504644 350.3486068 106.125 349.125 C106.125 348.135 106.125 347.145 106.125 346.125 C105.465 346.125 104.805 346.125 104.125 346.125 Z M98.125 348.125 C97.795 349.115 97.465 350.105 97.125 351.125 C97.455 351.785 97.785 352.445 98.125 353.125 C99.115 353.125 100.105 353.125 101.125 353.125 C101.125 352.135 101.125 351.145 101.125 350.125 C100.465 350.125 99.805 350.125 99.125 350.125 C98.795 349.465 98.465 348.805 98.125 348.125 Z M118.125 350.125 C118.125 351.115 118.125 352.105 118.125 353.125 C118.785 353.125 119.445 353.125 120.125 353.125 C120.125 352.135 120.125 351.145 120.125 350.125 C119.465 350.125 118.805 350.125 118.125 350.125 Z M123.125 356.125 C123.125 356.785 123.125 357.445 123.125 358.125 C123.785 358.125 124.445 358.125 125.125 358.125 C125.125 357.465 125.125 356.805 125.125 356.125 C124.465 356.125 123.805 356.125 123.125 356.125 Z M123.125 359.125 C123.125 359.785 123.125 360.445 123.125 361.125 C123.785 361.125 124.445 361.125 125.125 361.125 C125.125 360.465 125.125 359.805 125.125 359.125 C124.465 359.125 123.805 359.125 123.125 359.125 Z M122.125 361.125 C123.125 363.125 123.125 363.125 123.125 363.125 Z " fill="#000000" transform="translate(157.875,46.875)"/>
<path d="M0 0 C9.3711352 5.97369615 14.78355877 12.97958255 18.2734375 23.44921875 C19.10079746 36.1580103 18.55736964 45.61146791 10.1484375 55.76171875 C4.39440383 61.82060188 -2.93310387 66.13715794 -11.38671875 66.6875 C-24.39934338 67.02146151 -32.78033213 65.21772998 -42.5234375 55.96484375 C-50.41484892 46.95408319 -51.39945122 36.973239 -50.89257812 25.49902344 C-50.14763321 16.30114476 -44.47041247 9.35532338 -37.7265625 3.44921875 C-26.9205365 -3.35920225 -11.88139382 -5.77849358 0 0 Z " fill="#000000" transform="translate(266.7265625,218.55078125)"/>
<path d="M0 0 C0.33 1.65 0.66 3.3 1 5 C-0.32 5 -1.64 5 -3 5 C-3.144375 5.928125 -3.28875 6.85625 -3.4375 7.8125 C-4 11 -4 11 -5 14 C-4.01 14.33 -3.02 14.66 -2 15 C-2 15.66 -2 16.32 -2 17 C-1.01 17 -0.02 17 1 17 C1.33 17.99 1.66 18.98 2 20 C2.99 19.67 3.98 19.34 5 19 C5.33 18.34 5.66 17.68 6 17 C6 17.99 6 18.98 6 20 C7.32 19.67 8.64 19.34 10 19 C10 19.66 10 20.32 10 21 C6.92382812 21.29296875 6.92382812 21.29296875 3.84765625 21.5859375 C3.23792969 21.72257812 2.62820312 21.85921875 2 22 C1.67 22.66 1.34 23.32 1 24 C0.01 24 -0.98 24 -2 24 C-2 23.34 -2 22.68 -2 22 C-2.66 22 -3.32 22 -4 22 C-4 23.32 -4 24.64 -4 26 C-8.95 26.495 -8.95 26.495 -14 27 C-14 27.66 -14 28.32 -14 29 C-14.66 29 -15.32 29 -16 29 C-16.94881594 26.62796014 -17.89726558 24.25578415 -18.84375 21.8828125 C-19.6073908 19.97887023 -20.3780988 18.0777455 -21.15625 16.1796875 C-21.5171875 15.29539063 -21.878125 14.41109375 -22.25 13.5 C-22.58515625 12.6853125 -22.9203125 11.870625 -23.265625 11.03125 C-24 9 -24 9 -24 7 C-22.01432292 6.51171875 -20.02864583 6.0234375 -18.04296875 5.53515625 C-16.34316798 5.08989295 -14.66698046 4.55566015 -13 4 C-12.01 4 -11.02 4 -10 4 C-9.67 3.34 -9.34 2.68 -9 2 C-8.34 2 -7.68 2 -7 2 C-7 2.66 -7 3.32 -7 4 C-6.34 4 -5.68 4 -5 4 C-4.67 3.01 -4.34 2.02 -4 1 C-2 0 -2 0 0 0 Z M-9 5 C-8 7 -8 7 -8 7 Z " fill="#000000" transform="translate(110,182)"/>
<path d="M0 0 C0.99 0.33 1.98 0.66 3 1 C3 1.99 3 2.98 3 4 C3.94875 4.2475 4.8975 4.495 5.875 4.75 C9.43303673 6.17321469 9.55234022 6.69106337 11 10 C13.0335948 11.26804566 13.0335948 11.26804566 15 12 C14.4375 13.9375 14.4375 13.9375 13 16 C9.375 16.75 9.375 16.75 6 17 C5.80522261 18.62414378 5.61940542 20.24936423 5.4375 21.875 C5.33308594 22.77992187 5.22867188 23.68484375 5.12109375 24.6171875 C4.80325148 27.01653057 4.80325148 27.01653057 6 29 C6.66 29.33 7.32 29.66 8 30 C7.34 30 6.68 30 6 30 C6 31.32 6 32.64 6 34 C6.66 34 7.32 34 8 34 C8.33 34.99 8.66 35.98 9 37 C8.01 37 7.02 37 6 37 C5.505 34.525 5.505 34.525 5 32 C3.02 31.34 1.04 30.68 -1 30 C-1 29.01 -1 28.02 -1 27 C-2.32 26.67 -3.64 26.34 -5 26 C-5 25.34 -5 24.68 -5 24 C-5.66 24 -6.32 24 -7 24 C-7 23.34 -7 22.68 -7 22 C-7.99 22 -8.98 22 -10 22 C-10.66 21.01 -11.32 20.02 -12 19 C-12.66 19 -13.32 19 -14 19 C-13.505 17.515 -13.505 17.515 -13 16 C-12.34 16 -11.68 16 -11 16 C-10.5359375 15.071875 -10.5359375 15.071875 -10.0625 14.125 C-9.375 12.75 -8.6875 11.375 -8 10 C-7.34 10 -6.68 10 -6 10 C-5.62875 9.195625 -5.62875 9.195625 -5.25 8.375 C-3.70303025 5.43575748 -1.86985631 2.74245592 0 0 Z M10 10 C9.67 10.66 9.34 11.32 9 12 C9.66 12 10.32 12 11 12 C10.67 11.34 10.34 10.68 10 10 Z M2 17 C1.67 17.99 1.34 18.98 1 20 C1.99 19.67 2.98 19.34 4 19 C4 18.34 4 17.68 4 17 C3.34 17 2.68 17 2 17 Z M-4 22 C-4 22.99 -4 23.98 -4 25 C-2.68 25.33 -1.36 25.66 0 26 C0 25.34 0 24.68 0 24 C-0.66 24 -1.32 24 -2 24 C-2 23.34 -2 22.68 -2 22 C-2.66 22 -3.32 22 -4 22 Z " fill="#000000" transform="translate(221,78)"/>
<path d="M0 0 C2 2 2 2 2.125 5.625 C2.08375 6.73875 2.0425 7.8525 2 9 C0.35 9 -1.3 9 -3 9 C-3 8.34 -3 7.68 -3 7 C-2.01 6.67 -1.02 6.34 0 6 C0 4.02 0 2.04 0 0 Z " fill="#000000" transform="translate(126,341)"/>
<path d="M0 0 C0.99 0 1.98 0 3 0 C3 1.65 3 3.3 3 5 C1.35 4.67 -0.3 4.34 -2 4 C-1.34 2.68 -0.68 1.36 0 0 Z " fill="#000000" transform="translate(380,143)"/>
<path d="M0 0 C0.66 0 1.32 0 2 0 C2 1.65 2 3.3 2 5 C1.34 5 0.68 5 0 5 C-0.5625 3.0625 -0.5625 3.0625 -1 1 C-0.67 0.67 -0.34 0.34 0 0 Z " fill="#000000" transform="translate(237,92)"/>
<path d="M0 0 C1.32 0 2.64 0 4 0 C4 0.99 4 1.98 4 3 C2.68 3.33 1.36 3.66 0 4 C0 2.68 0 1.36 0 0 Z " fill="#000000" transform="translate(385,318)"/>
<path d="M0 0 C0.99 0.33 1.98 0.66 3 1 C3 1.66 3 2.32 3 3 C1.68 3.33 0.36 3.66 -1 4 C-0.67 2.68 -0.34 1.36 0 0 Z " fill="#000000" transform="translate(117,352)"/>
<path d="M0 0 C0.99 0 1.98 0 3 0 C3 0.99 3 1.98 3 3 C2.01 2.67 1.02 2.34 0 2 C0 1.34 0 0.68 0 0 Z " fill="#000000" transform="translate(227,100)"/>
<path d="M0 0 C1.32 0 2.64 0 4 0 C4 0.66 4 1.32 4 2 C2.68 2 1.36 2 0 2 C0 1.34 0 0.68 0 0 Z " fill="#000000" transform="translate(230,96)"/>
<path d="M0 0 C0.33 1.32 0.66 2.64 1 4 C0.34 4 -0.32 4 -1 4 C-0.67 2.68 -0.34 1.36 0 0 Z " fill="#000000" transform="translate(390,307)"/>
<path d="M0 0 C0.99 0.33 1.98 0.66 3 1 C3 1.66 3 2.32 3 3 C2.01 3 1.02 3 0 3 C0 2.01 0 1.02 0 0 Z " fill="#000000" transform="translate(241,97)"/>
<path d="M0 0 C0.66 0 1.32 0 2 0 C2.33 1.32 2.66 2.64 3 4 C2.34 4 1.68 4 1 4 C0.67 2.68 0.34 1.36 0 0 Z " fill="#000000" transform="translate(404,302)"/>
<path d="M0 0 C0.66 1.32 1.32 2.64 2 4 C1.34 4 0.68 4 0 4 C0 2.68 0 1.36 0 0 Z " fill="#000000" transform="translate(121,197)"/>
<path d="M0 0 C0.66 0 1.32 0 2 0 C2 0.99 2 1.98 2 3 C1.34 3 0.68 3 0 3 C0 2.01 0 1.02 0 0 Z " fill="#000000" transform="translate(108,189)"/>
<path d="M0 0 C0.99 0.495 0.99 0.495 2 1 C2 1.66 2 2.32 2 3 C1.34 3 0.68 3 0 3 C0 2.01 0 1.02 0 0 Z " fill="#000000" transform="translate(110,194)"/>
<path d="M0 0 C0 3 0 3 0 3 Z " fill="#000000" transform="translate(275,405)"/>
<path d="M0 0 C1 4 1 4 1 4 Z " fill="#000000" transform="translate(121,333)"/>
<path d="M0 0 C0.66 0 1.32 0 2 0 C2 0.66 2 1.32 2 2 C1.34 2 0.68 2 0 2 C0 1.34 0 0.68 0 0 Z " fill="#000000" transform="translate(232,110)"/>
<path d="M0 0 C0.66 0.66 1.32 1.32 2 2 C1.34 2 0.68 2 0 2 C0 1.34 0 0.68 0 0 Z " fill="#000000" transform="translate(271,415)"/>
<path d="" fill="#000000" transform="translate(0,0)"/>
<path d="M0 0 C2 1 2 1 2 1 Z " fill="#000000" transform="translate(277,415)"/>
<path d="" fill="#000000" transform="translate(0,0)"/>
<path d="" fill="#000000" transform="translate(0,0)"/>
<path d="" fill="#000000" transform="translate(0,0)"/>
<path d="M0 0 C2 1 2 1 2 1 Z " fill="#000000" transform="translate(266,401)"/>
<path d="M0 0 C2 1 2 1 2 1 Z " fill="#000000" transform="translate(123,336)"/>
<path d="M0 0 C2 1 2 1 2 1 Z " fill="#000000" transform="translate(394,307)"/>
<path d="" fill="#000000" transform="translate(0,0)"/>
<path d="" fill="#000000" transform="translate(0,0)"/>
<path d="" fill="#000000" transform="translate(0,0)"/>
<path d="" fill="#000000" transform="translate(0,0)"/>
<path d="" fill="#000000" transform="translate(0,0)"/>
<path d="M0 0 C2 1 2 1 2 1 Z " fill="#000000" transform="translate(227,98)"/>
<path d="" fill="#000000" transform="translate(0,0)"/>
<path d="" fill="#000000" transform="translate(0,0)"/>
<path d="" fill="#000000" transform="translate(0,0)"/>
<path d="" fill="#000000" transform="translate(0,0)"/>
<path d="" fill="#000000" transform="translate(0,0)"/>
<path d="" fill="#000000" transform="translate(0,0)"/>
<path d="" fill="#000000" transform="translate(0,0)"/>
<path d="" fill="#000000" transform="translate(0,0)"/>
<path d="" fill="#000000" transform="translate(0,0)"/>
</svg>
