<?xml version="1.0" encoding="UTF-8"?>
<svg version="1.1" xmlns="http://www.w3.org/2000/svg" width="1712" height="2048">
<path d="M0 0 C4.06960159 1.36853859 6.58458283 3.18107528 9.6875 6.125 C13.80535917 9.93828379 18.03307489 13.49728956 22.4375 16.97265625 C26.06868113 19.8454962 29.64320035 22.78579552 33.22265625 25.72265625 C35.04021344 27.21300202 36.86042748 28.70011494 38.68359375 30.18359375 C44.23011108 34.69969857 49.71333415 39.2823899 55.16357422 43.91357422 C59.45972273 47.55836708 63.8135055 51.12772864 68.18359375 54.68359375 C71.33785192 57.27787266 74.4520298 59.91606265 77.5625 62.5625 C81.33088939 65.76739191 85.12246028 68.92687694 89 72 C93.45253701 75.52883403 97.78685979 79.18229329 102.11328125 82.86328125 C105.54571609 85.78004513 109.00592815 88.65693426 112.5 91.5 C117.1045358 95.24787798 121.64019191 99.06983444 126.1640625 102.9140625 C129.5805954 105.81244823 133.02504838 108.671551 136.5 111.5 C141.1045358 115.24787798 145.64019191 119.06983444 150.1640625 122.9140625 C153.5805954 125.81244823 157.02504838 128.671551 160.5 131.5 C165.1045358 135.24787798 169.64019191 139.06983444 174.1640625 142.9140625 C177.5805954 145.81244823 181.02504838 148.671551 184.5 151.5 C189.1045358 155.24787798 193.64019191 159.06983444 198.1640625 162.9140625 C201.5805954 165.81244823 205.02504838 168.671551 208.5 171.5 C213.1045358 175.24787798 217.64019191 179.06983444 222.1640625 182.9140625 C225.5805954 185.81244823 229.02504838 188.671551 232.5 191.5 C236.53983858 194.7882407 240.53071642 198.12744796 244.5 201.5 C249.31196521 205.58460787 254.14737698 209.63526855 259.0546875 213.60546875 C261.2650235 215.40246606 263.45275294 217.21778172 265.6328125 219.05078125 C277.9514083 229.30505292 289.42317064 235.32948398 305.74572754 235.26171303 C306.70213593 235.26570909 307.65854432 235.26970515 308.64393479 235.27382231 C311.84926433 235.28479263 315.05442112 235.2815958 318.25976562 235.2784729 C320.58068505 235.28347597 322.90160274 235.2893518 325.22251797 235.29602563 C331.60073498 235.3118382 337.97890796 235.31525702 344.35714221 235.31667423 C350.52873859 235.31901207 356.70031541 235.33264047 362.87189802 235.3450741 C375.49484452 235.37018246 388.11778682 235.38605529 400.74075317 235.39665604 C413.23821922 235.4071816 425.73566934 235.42181724 438.23312378 235.44193649 C439.39890972 235.44380979 439.39890972 235.44380979 440.58824689 235.44572094 C444.53524051 235.45208473 448.48223401 235.4585219 452.42922747 235.46498732 C480.38233475 235.51064426 508.3354472 235.54709438 536.28857422 235.578125 C563.44385536 235.60829102 590.59912599 235.64263052 617.75439453 235.68261719 C618.59150769 235.68384819 619.42862085 235.68507919 620.29110107 235.6863475 C628.69777158 235.69871441 637.10444197 235.71116612 645.51111227 235.72367998 C662.63631371 235.74916999 679.76151597 235.77409393 696.88671875 235.79867554 C697.67409972 235.79980645 698.46148068 235.80093736 699.27272168 235.80210253 C751.84846894 235.87755177 804.42423337 235.93976413 857 236 C856.48492606 253.54406455 855.96900297 271.08810394 855.45233941 288.63212174 C855.20483756 297.03707919 854.95757793 305.44204361 854.71095276 313.84702682 C851.95981472 407.59135463 849.0888311 501.33160979 844.671875 636.59765625 C844.63576547 637.6988139 844.63576547 637.6988139 844.59892646 638.82221716 C843.3071975 678.2110456 842.00922955 717.59966807 840.70926327 756.9882254 C839.9817018 779.03354259 839.25519114 801.07889419 838.52944664 823.12427127 C838.39237531 827.28796278 838.25529598 831.45165403 838.11821729 835.6153453 C838.09099953 836.44207119 838.06378176 837.26879708 838.03573922 838.12057528 C837.98067915 839.79299506 837.92561895 841.46541485 837.87055865 843.13783462 C837.81540029 844.81323334 837.76024217 846.48863206 837.70508429 848.16403079 C835.20323677 924.15624339 832.6949037 1000.14824125 830.18447202 1076.14017069 C829.3695792 1100.80743843 828.55512673 1125.47472068 827.74105853 1150.14201565 C825.36693303 1222.0807522 822.99093195 1294.01942594 820.60828972 1365.95788097 C820.58328984 1366.71270033 820.55828997 1367.46751969 820.53253252 1368.24521237 C820.30664602 1375.06537247 820.08075823 1381.88553254 819.85485233 1388.705692 C819.3083727 1405.20427496 818.76223236 1421.70286903 818.21708679 1438.20149612 C818.19261182 1438.94221981 818.16813685 1439.6829435 818.14292021 1440.44611337 C818.01978945 1444.17267716 817.89666522 1447.89924117 817.77354353 1451.62580526 C816.88739395 1478.44709692 815.99949799 1505.26832977 815.10842842 1532.08945847 C814.68111093 1544.95295778 814.2546021 1557.81648254 813.83049202 1570.68008804 C813.48002045 1581.3101751 813.12778176 1591.94020162 812.7731091 1602.57014937 C812.5949419 1607.91158451 812.41761169 1613.25304376 812.24263906 1618.59458458 C812.08351 1623.4518801 811.92189949 1628.30908658 811.75833731 1633.16623478 C811.70012822 1634.90752359 811.64280683 1636.64884239 811.58650435 1638.39019389 C811.41793405 1643.59477289 811.22564061 1648.7975809 811 1654 C810.97199483 1654.68923436 810.94398966 1655.37846872 810.91513585 1656.08858897 C810.83044323 1658.05006245 810.7253636 1660.01062379 810.61931896 1661.97105885 C810.56245362 1663.0760966 810.50558827 1664.18113435 810.44699973 1665.3196581 C810 1668 810 1668 807.421875 1670.625 C806.21015625 1671.07875 804.9984375 1671.5325 803.75 1672 C802.27973591 1672.60702271 800.81111788 1673.21804056 799.34375 1673.83203125 C798.50585938 1674.16283691 797.66796875 1674.49364258 796.8046875 1674.83447266 C791.79496001 1676.91633539 786.96688027 1679.38031726 782.1026001 1681.77810669 C770.6117138 1687.41868457 759.0039593 1692.81106596 747.38183594 1698.17456055 C739.38307651 1701.8728936 731.43118625 1705.65907846 723.5 1709.5 C714.59827522 1713.80909061 705.66548868 1718.03963822 696.6875 1722.1875 C685.59520643 1727.31305614 674.53989035 1732.51259936 663.5 1737.75 C662.69762909 1738.13060577 661.89525818 1738.51121155 661.068573 1738.90335083 C657.80576874 1740.45115357 654.54302569 1741.99908519 651.28041077 1743.54728699 C642.77481738 1747.58281383 634.26325148 1751.60565806 625.75 1755.625 C625.00921204 1755.97476898 624.26842407 1756.32453796 623.50518799 1756.68490601 C609.12639539 1763.47329232 594.73992674 1770.24533198 580.35092163 1777.01203918 C575.33173532 1779.3727326 570.31405442 1781.73660732 565.296875 1784.1015625 C552.29731746 1790.22788823 539.2924561 1796.34034566 526.25 1802.375 C513.62595746 1808.21824337 501.05422888 1814.16907779 488.48632812 1820.13183594 C477.91564429 1825.14685894 467.3378336 1830.14628341 456.75 1835.125 C456.05638367 1835.45118317 455.36276733 1835.77736633 454.64813232 1836.11343384 C451.16074276 1837.75332701 447.6731872 1839.39286678 444.18554688 1841.03222656 C437.83239613 1844.01873455 431.48078186 1847.00850775 425.12902832 1849.99798584 C421.58607963 1851.66545298 418.04303504 1853.33271634 414.5 1855 C413.08333287 1855.66666569 411.66666621 1856.33333235 410.25 1857 C299.75000003 1908.99999998 299.75000003 1908.99999998 297.62509155 1909.99995422 C296.20811694 1910.6667676 294.7911451 1911.33358686 293.37417603 1912.00041199 C289.83724352 1913.66488218 286.30026332 1915.32925088 282.76318359 1916.9934082 C276.33160627 1920.01951799 269.90040986 1923.04642556 263.47094727 1926.07702637 C249.74716017 1932.54580259 236.01951455 1939.00394073 222.25 1945.375 C211.26278948 1950.46060905 200.31367599 1955.62352153 189.375 1960.8125 C188.57076599 1961.193992 187.76653198 1961.57548401 186.93792725 1961.96853638 C186.13325012 1962.35024994 185.328573 1962.7319635 184.49951172 1963.12524414 C182.87468114 1963.89601014 181.24984391 1964.66676211 179.625 1965.4375 C178.82095734 1965.81889633 178.01691467 1966.20029266 177.18850708 1966.59324646 C168.92342266 1970.51258482 160.65131643 1974.41694063 152.375 1978.3125 C151.67105103 1978.64384949 150.96710205 1978.97519897 150.24182129 1979.31658936 C139.75525545 1984.25068012 129.24865573 1989.14035584 118.73120117 1994.00830078 C110.11935781 1998.00041704 101.53548471 2002.04937258 92.95706177 2006.1126709 C77.7717841 2013.30418187 62.56307519 2020.44382731 47.28344727 2027.43310547 C45.66942466 2028.17152996 44.05541093 2028.90997383 42.44140625 2029.6484375 C41.65173965 2030.00952606 40.86207306 2030.37061462 40.04847717 2030.74264526 C35.39835467 2032.87620097 30.77473113 2035.05707018 26.16981506 2037.28648376 C23.32942907 2038.65849015 20.47900483 2040.00874706 17.62686157 2041.35610962 C16.3108606 2041.98482975 14.99973319 2042.62387337 13.69418335 2043.27401733 C11.90549901 2044.16377973 10.09754537 2045.01448299 8.2890625 2045.86328125 C7.28568848 2046.35094971 6.28231445 2046.83861816 5.24853516 2047.34106445 C0.53939568 2048.29627018 -2.662806 2046.8388663 -7 2045 C-8.05831024 2044.55242592 -8.05831024 2044.55242592 -9.13800049 2044.09580994 C-11.32584326 2043.13402387 -13.48986079 2042.13075032 -15.65234375 2041.11328125 C-16.45727264 2040.73927689 -17.26220154 2040.36527252 -18.09152222 2039.97993469 C-20.70907851 2038.76217856 -23.32330775 2037.53745893 -25.9375 2036.3125 C-27.77351079 2035.45650193 -29.60969476 2034.60087524 -31.44604492 2033.74560547 C-44.32165548 2027.74333636 -57.17772213 2021.69900668 -70.02563477 2015.63769531 C-78.6272985 2011.58031272 -87.24382014 2007.55683862 -95.875 2003.5625 C-107.38944911 1998.23274051 -118.86474666 1992.82294945 -130.33349609 1987.39575195 C-140.162771 1982.74515378 -150.00490169 1978.12596898 -159.875 1973.5625 C-171.77825918 1968.05794118 -183.63008443 1962.44853382 -195.47698975 1956.82400513 C-205.63092586 1952.00419411 -215.79713565 1947.21556524 -226 1942.5 C-236.99006038 1937.42011744 -247.93739086 1932.25412211 -258.875 1927.0625 C-270.27510203 1921.65140922 -281.68424771 1916.26214143 -293.125 1910.9375 C-304.01654209 1905.86805974 -314.88888951 1900.7593221 -325.75 1895.625 C-326.50587402 1895.26768799 -327.26174805 1894.91037598 -328.04052734 1894.54223633 C-329.17482178 1894.00602661 -329.17482178 1894.00602661 -330.33203125 1893.45898438 C-331.859372 1892.73697282 -333.38671575 1892.01496761 -334.9140625 1891.29296875 C-335.67044006 1890.93540497 -336.42681763 1890.57784119 -337.20611572 1890.20944214 C-345.17487796 1886.44320235 -353.14938363 1882.68919858 -361.125 1878.9375 C-362.17101379 1878.4454306 -362.17101379 1878.4454306 -363.23815918 1877.94342041 C-366.7527797 1876.29009661 -370.26748068 1874.63694398 -373.78222656 1872.98388672 C-378.01913788 1870.99110736 -382.25571047 1868.99760867 -386.4921875 1867.00390625 C-387.19433884 1866.67347824 -387.89649017 1866.34305023 -388.61991882 1866.00260925 C-392.15692634 1864.33808291 -395.69386461 1862.67340959 -399.23071289 1861.00854492 C-405.68803875 1857.96913231 -412.14587498 1854.9308249 -418.60598755 1851.89733887 C-432.92100498 1845.17532243 -447.22396244 1838.43325261 -461.47119141 1831.56835938 C-474.47432335 1825.31278729 -487.5438126 1819.19760791 -500.60498047 1813.06445312 C-507.03319423 1810.04556373 -513.45854673 1807.02059546 -519.88406372 1803.99597168 C-523.42258691 1802.33038803 -526.96130341 1800.6652152 -530.5 1799 C-531.91666759 1798.33333529 -533.33333426 1797.66666863 -534.75 1797 C-535.45125 1796.67 -536.1525 1796.34 -536.875 1796 C-543.25000015 1792.99999993 -543.25000015 1792.99999993 -545.37503052 1791.99998474 C-546.79159454 1791.33336698 -548.20815948 1790.66675117 -549.62472534 1790.00013733 C-553.16797008 1788.33273852 -556.71119875 1786.66530559 -560.25439453 1784.99780273 C-566.61054412 1782.00650453 -572.96680141 1779.01543649 -579.32366943 1776.02566528 C-595.31127204 1768.5063258 -611.29340063 1760.97557328 -627.26794434 1753.42852783 C-642.43203179 1746.26469109 -657.60585648 1739.12165866 -672.78222656 1731.98388672 C-679.14629777 1728.99062375 -685.50960937 1725.9957466 -691.87298584 1723.00100708 C-695.41529349 1721.33394012 -698.95764915 1719.66697517 -702.5 1718 C-703.9166669 1717.33333382 -705.33333356 1716.66666716 -706.75 1716 C-707.45125 1715.67 -708.1525 1715.34 -708.875 1715 C-712.0625 1713.5 -712.0625 1713.5 -715.25 1712 C-716.30182968 1711.50502266 -716.30182968 1711.50502266 -717.37490845 1711.00004578 C-718.79188306 1710.3332324 -720.2088549 1709.66641314 -721.62582397 1708.99958801 C-725.16275648 1707.33511782 -728.69973668 1705.67074912 -732.23681641 1704.0065918 C-738.66820634 1700.98057018 -745.09922053 1697.95376174 -751.52848816 1694.92323303 C-755.1437619 1693.21916666 -758.75937105 1691.51581252 -762.375 1689.8125 C-763.07495087 1689.48265106 -763.77490173 1689.15280212 -764.49606323 1688.81295776 C-772.09502059 1685.2328335 -779.70039159 1681.66752138 -787.32421875 1678.140625 C-787.98444031 1677.83505173 -788.64466187 1677.52947845 -789.32489014 1677.21464539 C-792.44404445 1675.77159507 -795.56454539 1674.33163216 -798.68701172 1672.89575195 C-800.31340576 1672.14491333 -800.31340576 1672.14491333 -801.97265625 1671.37890625 C-802.92406494 1670.9413501 -803.87547363 1670.50379395 -804.85571289 1670.05297852 C-807 1669 -807 1669 -808 1668 C-808.20014633 1665.50849742 -808.33380804 1663.04030868 -808.42892361 1660.54385853 C-808.46355451 1659.72727301 -808.49818541 1658.9106875 -808.53386573 1658.06935697 C-808.65256913 1655.22057181 -808.76333129 1652.37153712 -808.87364197 1649.52241516 C-808.95890565 1647.3973453 -809.04419473 1645.27227646 -809.12950605 1643.14720851 C-810.48288448 1608.89845011 -811.56496724 1574.63874017 -812.69896838 1540.38220787 C-813.06732982 1529.25696054 -813.43810579 1518.13179394 -813.80890746 1507.00662772 C-814.53726678 1485.15132087 -815.26333416 1463.29593835 -815.98840233 1441.4405221 C-816.62788438 1422.16506325 -817.26814272 1402.88963036 -817.909132 1383.61422157 C-817.9520515 1382.32353943 -817.99497099 1381.03285728 -818.03919108 1379.70306355 C-818.21360622 1374.45803683 -818.38802414 1369.21301019 -818.56244669 1363.96798371 C-819.05043835 1349.29354456 -819.53829441 1334.6191009 -820.02603817 1319.94465351 C-820.04825542 1319.27621729 -820.07047267 1318.60778106 -820.09336318 1317.9190892 C-820.80106362 1296.62664881 -821.50814391 1275.33418787 -822.21479893 1254.04171276 C-822.23768984 1253.35198119 -822.26058076 1252.66224962 -822.28416534 1251.95161709 C-822.65553009 1240.76188479 -823.02686408 1229.57215147 -823.39819553 1218.38241806 C-824.80446625 1176.00579742 -826.21249296 1133.6292356 -827.62253928 1091.25274042 C-828.03122104 1078.97051616 -828.43987109 1066.68829084 -828.84850502 1054.40606499 C-828.87090792 1053.73270621 -828.89331083 1053.05934744 -828.91639261 1052.36558385 C-832.13789372 955.53704885 -835.35467986 858.70835543 -847.21034096 494.72659567 C-847.27667414 492.63440115 -847.34302518 490.54220719 -847.40938058 488.45001337 C-848.53710392 452.89043747 -849.65341741 417.33051394 -850.7584548 381.770226 C-850.92761398 376.32713513 -851.09697737 370.88405066 -851.26649332 365.4409709 C-851.78579647 348.76553807 -852.30414017 332.09007612 -852.82008218 315.41453892 C-852.86623467 313.92289081 -852.91238762 312.43124271 -852.95854104 310.93959463 C-852.98125884 310.20534193 -853.00397664 309.47108924 -853.02738286 308.71458647 C-853.18579653 303.59631501 -853.3447934 298.47806187 -853.50403774 293.35981619 C-853.71660036 286.52730099 -853.9278381 279.69474589 -854.13818161 272.86216201 C-854.21584775 270.34567598 -854.29393404 267.82920289 -854.37246712 265.31274377 C-854.48009069 261.86169887 -854.58618179 258.41061012 -854.69188786 254.95950603 C-854.72345212 253.95870957 -854.75501639 252.95791311 -854.78753715 251.92678948 C-854.94845661 246.61473111 -855.03087193 241.31450177 -855 236 C-853.22681608 235.99910437 -853.22681608 235.99910437 -851.41781026 235.99819064 C-799.31134223 235.97160982 -747.20487931 235.94008048 -695.09843445 235.88336182 C-693.91483242 235.88207555 -693.91483242 235.88207555 -692.70731924 235.8807633 C-675.55807699 235.86209697 -658.40883585 235.84254438 -641.25959565 235.82207905 C-632.84941487 235.81204801 -624.43923387 235.80221278 -616.02905273 235.79248047 C-615.19214585 235.79150866 -614.35523897 235.79053686 -613.49297127 235.7895356 C-586.37432501 235.7581375 -559.2556887 235.7396652 -532.13702741 235.72790753 C-504.26530939 235.71575502 -476.3936329 235.69053902 -448.52194255 235.64892386 C-444.58379855 235.64304991 -440.64565435 235.63732505 -436.70750999 235.63169098 C-435.54490361 235.63002079 -435.54490361 235.63002079 -434.35881024 235.62831686 C-421.89044859 235.61078814 -409.42211894 235.6069997 -396.95374663 235.60837079 C-384.41388181 235.60945574 -371.87409881 235.5960145 -359.33426503 235.56783572 C-352.54188649 235.55297269 -345.74967107 235.54499588 -338.9572773 235.55419731 C-332.73597352 235.56248251 -326.51497932 235.55233342 -320.29372146 235.52766338 C-318.04586718 235.52197843 -315.79798358 235.5229972 -313.55013815 235.53148755 C-290.13883385 235.61232168 -276.18627245 229.67020657 -258.5625 214.34472656 C-256.24539091 212.35056455 -253.8742038 210.42558971 -251.5 208.5 C-247.46016863 205.21176517 -243.46907935 201.87278574 -239.5 198.5 C-234.65040619 194.37898366 -229.74839194 190.33008646 -224.8125 186.3125 C-221.68200334 183.73853608 -218.58827539 181.12430914 -215.5 178.5 C-210.65040619 174.37898366 -205.74839194 170.33008646 -200.8125 166.3125 C-197.68200334 163.73853608 -194.58827539 161.12430914 -191.5 158.5 C-186.65179875 154.38016701 -181.75154155 150.33204036 -176.81640625 146.31640625 C-173.66214903 143.72212812 -170.54793629 141.08397609 -167.4375 138.4375 C-163.69144669 135.25086897 -159.9219404 132.11209061 -156.0625 129.0625 C-151.32099497 125.3078448 -146.74933414 121.37330661 -142.17211914 117.42211914 C-138.06610934 113.88730266 -133.87768617 110.48238382 -129.625 107.125 C-126.35937999 104.48140285 -123.18022226 101.74526198 -120 99 C-115.26306368 94.91162937 -110.46498208 90.93462518 -105.5546875 87.0546875 C-101.94147953 84.14865173 -98.41778263 81.14104418 -94.88647461 78.13647461 C-91.45409036 75.21982939 -87.9939826 72.34299312 -84.5 69.5 C-80.46016457 66.21176186 -76.46919573 62.87265239 -72.5 59.5 C-67.72592153 55.44565636 -62.91120385 51.44778488 -58.0546875 47.4921875 C-54.31846264 44.44396312 -50.5962679 41.37895252 -46.875 38.3125 C-46.15521973 37.71953125 -45.43543945 37.1265625 -44.69384766 36.515625 C-42.46243712 34.6772386 -40.23119303 32.83865038 -38 31 C-11.24428124 8.95152107 -11.24428124 8.95152107 0 0 Z M-4.4375 205.9375 C-8.86290074 210.00151414 -13.41334289 213.83745955 -18.08203125 217.6171875 C-21.25417407 220.20755848 -24.38043294 222.84682867 -27.5 225.5 C-32.34939906 229.62124182 -37.25161371 233.66991814 -42.1875 237.6875 C-45.31799666 240.26146392 -48.41172461 242.87569086 -51.5 245.5 C-56.34959381 249.62101634 -61.25160806 253.66991354 -66.1875 257.6875 C-69.8809391 260.7243277 -73.52298486 263.81960955 -77.16625977 266.91625977 C-80.55954109 269.7954532 -83.98267786 272.63204237 -87.4375 275.4375 C-91.68392382 278.89274151 -95.85296294 282.42697834 -100 286 C-105.01319488 290.31928956 -110.0853732 294.55097119 -115.22265625 298.72265625 C-118.34396367 301.28204054 -121.4245003 303.88593791 -124.5 306.5 C-129.34954051 310.62107792 -134.25160964 314.66991483 -139.1875 318.6875 C-142.31800096 321.26146746 -145.41156585 323.87587283 -148.5 326.5 C-153.32251959 330.59356689 -158.1697062 334.65165689 -163.0859375 338.6328125 C-165.18941082 340.34153211 -167.27450986 342.06458158 -169.3515625 343.8046875 C-183.63351525 355.65219439 -199.17300016 365.21188858 -216 373 C-217.08796875 373.51949219 -218.1759375 374.03898438 -219.296875 374.57421875 C-245.29410724 386.42223966 -273.25991427 391.31703831 -301.6474762 391.2784729 C-303.35744374 391.28348993 -305.06740892 391.28936977 -306.77737087 391.29602563 C-311.42502121 391.31166961 -316.07261086 391.3152476 -320.72028434 391.31667423 C-325.75140624 391.32039586 -330.78249588 391.33556481 -335.81359863 391.34928894 C-344.51337401 391.37147944 -353.21313778 391.3865419 -361.91293526 391.39665604 C-374.49112067 391.41128955 -387.06926563 391.43683927 -399.64742719 391.46498732 C-420.05847913 391.51037073 -440.46953691 391.54702034 -460.88061523 391.578125 C-480.69898505 391.60834525 -500.51734058 391.64271141 -520.33569336 391.68261719 C-521.55888224 391.68507874 -522.78207113 391.68754028 -524.04232634 391.69007643 C-530.17917898 391.7024517 -536.31603145 391.71490811 -542.45288384 391.72740483 C-593.30190283 391.83084599 -644.15093967 391.91971247 -695 392 C-694.37772985 420.58268669 -693.55311982 449.15457679 -692.5911845 477.72772678 C-692.40048105 483.40606668 -692.21216069 489.08448577 -692.0235076 494.76289409 C-691.69410025 504.6684752 -691.36323638 514.57400678 -691.03136253 524.47950554 C-690.67608146 535.08376884 -690.32167724 545.68806096 -689.96833229 556.29238892 C-689.94583627 556.96750637 -689.92334025 557.64262382 -689.90016252 558.33819938 C-689.78541345 561.78199473 -689.67067821 565.22579055 -689.55594756 568.66958653 C-688.72981862 593.46604958 -687.90174678 618.26244744 -687.07258606 643.05880928 C-686.25197541 667.59958652 -685.43213415 692.14038925 -684.61332703 716.68122673 C-684.56173012 718.2276342 -684.51013318 719.77404167 -684.45853622 721.32044914 C-684.25115504 727.53589721 -684.04378012 733.75134549 -683.83641273 739.96679402 C-683.25692481 757.33581977 -682.67730436 774.7048411 -682.09758759 792.07385921 C-682.05800476 793.25981181 -682.05800476 793.25981181 -682.01762228 794.46972304 C-680.70892108 833.67970337 -679.39859235 872.8896293 -678.08822377 912.09955394 C-676.33365075 964.6013985 -674.58043216 1017.10328808 -672.82861328 1069.60522461 C-672.77319364 1071.2661411 -672.71777396 1072.92705759 -672.66235425 1074.58797408 C-672.55164397 1077.90593849 -672.44093384 1081.22390292 -672.33022387 1084.54186735 C-672.08196171 1091.98225325 -671.83369899 1099.42263914 -671.58543452 1106.86302497 C-671.53044188 1108.51113401 -671.47544937 1110.15924306 -671.42045701 1111.80735211 C-669.95018491 1155.87105518 -668.47907746 1199.93473035 -667.0076375 1243.99839443 C-666.98193852 1244.76797541 -666.95623954 1245.53755639 -666.9297618 1246.33045801 C-666.69725773 1253.2930094 -666.46475264 1260.25556074 -666.23224072 1267.21811186 C-665.66797453 1284.11504145 -665.10378722 1301.01197366 -664.53983879 1317.90891385 C-664.51447407 1318.66888369 -664.48910936 1319.42885353 -664.46297601 1320.21185276 C-664.36076755 1323.27419261 -664.25855943 1326.33653247 -664.15635139 1329.39887234 C-663.20685787 1357.84737847 -662.25681157 1386.29586603 -661.3057059 1414.74431831 C-661.21435778 1417.47668852 -661.12301189 1420.2090588 -661.03166771 1422.94142914 C-661.00925158 1423.6119519 -660.98683545 1424.28247467 -660.96374005 1424.97331631 C-660.5886552 1436.19349003 -660.21421341 1447.41368515 -659.83994327 1458.63388608 C-659.51359019 1468.41617671 -659.1866303 1478.19844695 -658.85918428 1487.98070106 C-658.67288922 1493.54662987 -658.48684448 1499.11256672 -658.30153292 1504.67852838 C-657.24751781 1536.34282847 -657.24751781 1536.34282847 -656 1568 C-638.33890273 1576.3451822 -620.67623557 1584.6869215 -603 1593 C-591.32823426 1598.48923547 -579.66201866 1603.99008736 -568 1609.5 C-552.08008949 1617.02134067 -536.15074823 1624.52249393 -520.21777344 1632.01611328 C-513.85370223 1635.00937625 -507.49039063 1638.0042534 -501.12701416 1640.99899292 C-497.58470651 1642.66605988 -494.04235085 1644.33302483 -490.5 1646 C-489.0833331 1646.66666618 -487.66666644 1647.33333284 -486.25 1648 C-485.54875 1648.33 -484.8475 1648.66 -484.125 1649 C-414 1682 -343.875 1715 -273.75 1748 C-272.69817032 1748.49497734 -272.69817032 1748.49497734 -271.62509155 1748.99995422 C-270.20811694 1749.6667676 -268.7911451 1750.33358686 -267.37417603 1751.00041199 C-263.83724352 1752.66488218 -260.30026332 1754.32925088 -256.76318359 1755.9934082 C-250.33159598 1759.01952283 -243.90038863 1762.04643386 -237.47091675 1765.07704163 C-233.85584434 1766.78102278 -230.24049745 1768.4844209 -226.625 1770.1875 C-225.91208801 1770.52333099 -225.19917603 1770.85916199 -224.46466064 1771.20516968 C-215.11659325 1775.60742174 -205.75359035 1779.97555574 -196.375 1784.3125 C-183.27348961 1790.37447836 -170.23744251 1796.5712271 -157.20214844 1802.77392578 C-146.35408782 1807.93531478 -135.49698002 1813.07668181 -124.625 1818.1875 C-123.93492859 1818.51191071 -123.24485718 1818.83632141 -122.53387451 1819.17056274 C-119.07390072 1820.79693761 -115.61367026 1822.42276549 -112.15332031 1824.04833984 C-105.81108149 1827.02807443 -99.47117366 1830.01276306 -93.13104248 1832.99697876 C-89.58745269 1834.66484595 -86.04371923 1836.33240785 -82.5 1838 C-81.08333264 1838.6666652 -79.66666598 1839.33333186 -78.25 1840 C-77.54875 1840.33 -76.8475 1840.66 -76.125 1841 C-74 1842 -71.875 1843 -69.75 1844 C-69.04889603 1844.3299295 -68.34779205 1844.65985901 -67.6254425 1844.99978638 C-66.20729529 1845.66715337 -64.78915362 1846.33453213 -63.37101746 1847.00192261 C-59.85204828 1848.65797044 -56.3329863 1850.31382046 -52.8137207 1851.96923828 C-46.16789644 1855.09560979 -39.52308518 1858.22408846 -32.88131714 1861.35906982 C-29.74031611 1862.84151403 -26.59881563 1864.32289809 -23.45727539 1865.80419922 C-21.95832697 1866.51135075 -20.45962405 1867.21902296 -18.96118164 1867.92724609 C-16.88489501 1868.90854177 -14.80777283 1869.88804793 -12.73046875 1870.8671875 C-10.95772583 1871.70419189 -10.95772583 1871.70419189 -9.14916992 1872.55810547 C-8.10994385 1873.03393066 -7.07071777 1873.50975586 -6 1874 C-5.15993408 1874.41523926 -4.31986816 1874.83047852 -3.4543457 1875.25830078 C1.57554907 1876.77832668 5.8852252 1874.81107847 10.4453125 1872.65625 C12.03206787 1871.91314575 12.03206787 1871.91314575 13.65087891 1871.1550293 C14.79733887 1870.60886963 15.94379883 1870.06270996 17.125 1869.5 C18.35695391 1868.91968042 19.58922181 1868.34002701 20.82177734 1867.76098633 C24.17878653 1866.18163525 27.53138419 1864.59311537 30.88330078 1863.00299072 C34.47175206 1861.30261529 38.06420075 1859.61072652 41.65625 1857.91796875 C47.72337308 1855.05764492 53.78816799 1852.19243723 59.8515625 1849.32421875 C68.56213275 1845.20426902 77.28013056 1841.10022307 86 1837 C97.67186439 1831.51097487 109.33798178 1826.00991243 121 1820.5 C136.91991051 1812.97865933 152.84925177 1805.47750607 168.78222656 1797.98388672 C175.14629777 1794.99062375 181.50960937 1791.9957466 187.87298584 1789.00100708 C191.41529349 1787.33394012 194.95764915 1785.66697517 198.5 1784 C199.9166669 1783.33333382 201.33333356 1782.66666716 202.75 1782 C211.24999995 1778.00000002 211.24999995 1778.00000002 213.37481689 1777.00009155 C214.79209945 1776.33313147 216.20937646 1775.66615962 217.62664795 1774.99917603 C221.15884639 1773.33690237 224.69113944 1771.6748304 228.22363281 1770.01318359 C234.71166388 1766.96103405 241.19885179 1763.90713927 247.68270874 1760.84613037 C251.37135236 1759.10479176 255.0605509 1757.36463127 258.75 1755.625 C259.46460388 1755.28799072 260.17920776 1754.95098145 260.91546631 1754.60375977 C270.4058571 1750.13061989 279.91387797 1745.7028043 289.50292969 1741.44384766 C294.59033457 1739.16598517 299.58442236 1736.72537682 304.5625 1734.21875 C312.93453406 1730.00373966 321.3916809 1725.9852017 329.875 1722 C331.44652966 1721.26001228 333.01797971 1720.51985549 334.58935547 1719.77954102 C338.61144399 1717.88516102 342.63456064 1715.99297559 346.65795898 1714.10137939 C350.34030853 1712.36970011 354.02169763 1710.6359824 357.703125 1708.90234375 C364.02689621 1705.92476371 370.35152962 1702.94902073 376.67660522 1699.97421265 C383.74258208 1696.65090852 390.80781559 1693.32602559 397.87298584 1690.00100708 C401.41529349 1688.33394012 404.95764915 1686.66697517 408.5 1685 C409.9166669 1684.33333382 411.33333356 1683.66666716 412.75 1683 C449.58333333 1665.66666667 486.41666667 1648.33333333 523.25 1631 C523.95126007 1630.66999496 524.65252014 1630.33998993 525.37503052 1629.99998474 C526.79159454 1629.33336698 528.20815948 1628.66675117 529.62472534 1628.00013733 C533.16797008 1626.33273852 536.71119875 1624.66530559 540.25439453 1622.99780273 C546.61054412 1620.00650453 552.96680141 1617.01543649 559.32366943 1614.02566528 C576.04327209 1606.16204924 592.75762211 1598.2874821 609.46166992 1590.39086914 C617.23336833 1586.71774183 625.00958013 1583.05454691 632.79296875 1579.40625 C634.38477878 1578.65953325 635.97657586 1577.91278889 637.56835938 1577.16601562 C640.59591678 1575.74570748 643.62475637 1574.32818165 646.65429688 1572.91210938 C648.01307249 1572.27484972 649.37179926 1571.63748589 650.73046875 1571 C651.92051514 1570.443125 653.11056152 1569.88625 654.33666992 1569.3125 C656.86150325 1568.2457299 656.86150325 1568.2457299 658 1567 C658.1649022 1565.03056742 658.26085254 1563.05535434 658.33106881 1561.08027786 C658.37944426 1559.78408288 658.42781971 1558.4878879 658.47766108 1557.15241428 C658.5271282 1555.69422847 658.57648807 1554.23603901 658.62575245 1552.77784634 C658.68105631 1551.24281201 658.73676122 1549.70779208 658.79283493 1548.17278568 C658.94667776 1543.92449968 659.09423334 1539.67601466 659.24066954 1535.42746772 C659.36766489 1531.76452485 659.4981642 1528.10171003 659.62863706 1524.43888962 C660.09671599 1511.29296875 660.5497853 1498.14654308 661 1485 C661.03501274 1483.97883188 661.07002548 1482.95766376 661.10609921 1481.90555115 C662.1800076 1450.58017514 663.22638217 1419.25388977 664.26687534 1387.92738851 C664.67895955 1375.52209196 665.09250305 1363.11684415 665.5061332 1350.71159908 C666.40696539 1323.69454049 667.30610169 1296.67742565 668.2045179 1269.66028662 C668.32755241 1265.96041311 668.45058947 1262.26053967 668.57362914 1258.56066632 C668.61030351 1257.45784571 668.61030351 1257.45784571 668.64771877 1256.33274589 C669.19408292 1239.90360068 669.74099183 1223.47447361 670.28800656 1207.04535005 C670.36327094 1204.78484662 670.43853411 1202.52434314 670.5137969 1200.26383965 C670.71561168 1194.20237423 670.91742746 1188.14090885 671.11924536 1182.07944354 C672.52285543 1139.92275872 673.92592807 1097.76605605 675.32784557 1055.60931492 C675.35413055 1054.81890852 675.38041553 1054.02850213 675.40749702 1053.21414402 C675.70049243 1044.40356716 675.99347964 1035.59299002 676.2864637 1026.78241277 C676.31290797 1025.98718459 676.33935223 1025.19195641 676.36659784 1024.3726304 C676.52700761 1019.5488091 676.52700761 1019.5488091 676.68741681 1014.72498779 C678.38467014 963.6851766 680.08359127 912.6454212 681.78393555 861.60571289 C682.21396499 848.69737319 682.64398963 835.78903332 683.0739851 822.88069248 C683.10046628 822.08573635 683.12694747 821.29078022 683.15423111 820.47173451 C683.97010969 795.97914948 684.78553811 771.4865495 685.60049152 746.99393368 C685.62606378 746.22538614 685.65163603 745.45683861 685.6779832 744.66500175 C686.23921005 727.79776774 686.80032427 710.93052998 687.36133567 694.0632888 C687.56200004 688.03018111 687.76267144 681.99707366 687.96334569 675.96396629 C688.01325779 674.46339534 688.06316943 672.96282436 688.11308062 671.46225338 C688.90738712 647.58165304 689.70272342 623.70108714 690.49856369 599.82053788 C691.32067767 575.15131194 692.14143802 550.48204129 692.96065208 525.81271888 C693.43275041 511.59737109 693.90586125 497.38205785 694.38041876 483.16679194 C694.6970157 473.68017404 695.01228968 464.19351278 695.32647631 454.70681475 C695.50561638 449.29890376 695.68533735 443.89101378 695.86666264 438.48317558 C696.03157902 433.56436191 696.19481296 428.64549539 696.35670559 423.7265813 C696.41519266 421.95847237 696.47429159 420.19038354 696.53407874 418.4223181 C696.83161682 409.61358037 697.09682998 400.81538194 697 392 C696.15735432 391.99864347 695.31470865 391.99728694 694.44652826 391.99588931 C644.44269506 391.91514158 594.43888938 391.8241472 544.43509926 391.71994839 C538.42361125 391.70743035 532.41212306 391.69499745 526.40063477 391.68261719 C524.60555684 391.6789182 524.60555684 391.6789182 522.77421471 391.67514448 C503.42762891 391.63548108 484.08103731 391.60270541 464.7344347 391.57250018 C444.86530792 391.5413249 424.99620561 391.50268975 405.12710637 391.45720994 C392.87869883 391.42940638 380.63030908 391.40733831 368.38187858 391.39273749 C359.96898978 391.38214998 351.55613554 391.36428007 343.14327285 391.34083296 C338.29824911 391.32754002 333.45327354 391.31731429 328.60823059 391.31578636 C275.03503185 391.29300513 223.59934135 383.79261271 180 350 C179.21061035 349.39551025 179.21061035 349.39551025 178.40527344 348.77880859 C171.09703253 343.17863206 164.00418183 337.36725089 157.04199219 331.34301758 C152.68459626 327.57285362 148.25052172 323.90974818 143.77734375 320.27734375 C140.65603633 317.71795946 137.5754997 315.11406209 134.5 312.5 C130.53096457 309.12716411 126.53982979 305.78823355 122.5 302.5 C115.69586214 296.95807902 109.02024122 291.26691077 102.33398438 285.58398438 C95.87593074 280.09729486 89.38502384 274.66222871 82.8125 269.3125 C79.68200088 266.73853406 76.5883659 264.12420534 73.5 261.5 C68.7308879 257.44987401 63.92087568 253.45647887 59.0703125 249.50390625 C49.49138111 241.69208052 39.94770048 233.84027163 30.53173828 225.83251953 C26.3492456 222.28035542 22.10843243 218.80522278 17.84765625 215.34765625 C15.70909242 213.58458785 13.59621782 211.80394722 11.49609375 209.99609375 C10.90441406 209.48820313 10.31273437 208.9803125 9.703125 208.45703125 C8.54454463 207.45993443 7.38946284 206.4587549 6.23828125 205.453125 C1.18538283 201.10962365 0.30889554 201.49487378 -4.4375 205.9375 Z " fill="#000000" transform="translate(855,0)"/>
<path d="M0 0 C2.18046835 -0.00407644 4.36093464 -0.00942427 6.54139709 -0.01593018 C12.40498249 -0.02948129 18.26840763 -0.0243563 24.13199544 -0.01479292 C30.30279894 -0.00713344 36.47358981 -0.01425914 42.64439392 -0.01895142 C53.00090976 -0.02439039 63.35736116 -0.01726591 73.71386719 -0.00292969 C85.64558005 0.01339749 97.5771391 0.00810021 109.50884825 -0.0084089 C119.79988666 -0.02207176 130.09087906 -0.02392018 140.38192362 -0.0160929 C146.5079328 -0.01144323 152.63386994 -0.01071641 158.75987434 -0.02070236 C164.5212802 -0.02944013 170.28248983 -0.0232271 176.04387474 -0.00601959 C178.14393922 -0.00209102 180.24402054 -0.00312553 182.34407806 -0.00980759 C221.63540235 -0.12319295 252.83761693 12.48700987 281.25366211 39.70068359 C303.72706382 62.72938738 311.04826736 92.08974682 318.56616211 122.38818359 C320.28519798 119.80962979 321.83708267 117.18549148 323.38256836 114.50195312 C340.95886975 84.30225408 367.86368202 62.90997216 401.56616211 53.38818359 C419.49601599 48.8186725 437.85074526 49.20164597 456.21850586 49.14990234 C458.06255099 49.14378905 458.06255099 49.14378905 459.94384956 49.13755226 C466.45312449 49.11678564 472.96237894 49.10244435 479.47167969 49.09301758 C486.13142151 49.08298894 492.79077996 49.04758456 499.45041561 49.00784588 C504.62832687 48.98147923 509.80616031 48.97330804 514.98413277 48.9697361 C517.43608431 48.96492083 519.88803361 48.95345532 522.33991814 48.9346981 C562.02962945 48.64995837 596.85601294 59.1002425 625.56616211 87.38818359 C650.17344328 112.41972823 661.21188773 145.91464707 660.92612781 180.41651995 C660.6301697 200.73771159 658.35531274 221.01153224 656.4821918 241.23239028 C655.94118131 247.10307155 655.41350013 252.97494812 654.88528072 258.84679083 C653.74020096 271.57005606 652.57950359 284.29185817 651.41199778 297.01308297 C650.39076997 308.14116413 649.37518474 319.26974343 648.36499786 330.39883232 C648.29764737 331.14074956 648.23029688 331.8826668 648.16090546 332.64706639 C647.88743754 335.65962997 647.61399788 338.67219612 647.34059906 341.68476598 C644.78345595 369.86110826 642.21075439 398.03601004 639.63045355 426.21024004 C637.34300951 451.18769512 635.06764996 476.16622196 632.80297852 501.14575195 C632.22239811 507.54945543 631.64180851 513.95315807 631.06110764 520.35685062 C630.98959464 521.14546871 630.91808165 521.9340868 630.8444016 522.74660241 C628.94518572 543.68847614 627.03661943 564.62949748 625.12513089 585.57025427 C624.91928704 587.82541123 624.71344539 590.08056839 624.5076077 592.33572592 C624.37108888 593.83140644 624.23456293 595.32708631 624.09802978 596.82276552 C623.14990765 607.21002153 622.20542561 617.59760276 621.26349892 627.98542231 C620.04969286 641.37155421 618.8293931 654.75706746 617.59784785 668.14157987 C617.0050994 674.58645847 616.41540628 681.03157507 615.8343792 687.4775219 C615.30119471 693.39158187 614.75868022 699.30471301 614.20907989 705.21726935 C614.01312579 707.34224857 613.82040735 709.46752955 613.63148126 711.59314514 C610.37690538 748.13646354 610.37690538 748.13646354 603.81616211 764.88818359 C603.47182129 765.79560303 603.12748047 766.70302246 602.77270508 767.63793945 C590.67867258 798.57149371 565.77984169 823.13897913 535.56616211 836.38818359 C518.72378177 843.61267832 502.15408689 846.54351324 483.86263657 846.52240467 C482.4643243 846.52435979 481.06601259 846.52674947 479.66770172 846.52953264 C475.82239171 846.53591574 471.97710265 846.53609562 468.13178835 846.53525523 C463.94920628 846.53542507 459.76663163 846.54133497 455.58405328 846.54649609 C447.28699548 846.55581494 438.98994302 846.55974293 430.69288065 846.56201506 C420.75488584 846.56497901 410.8168981 846.57367757 400.87890701 846.58242934 C376.85789235 846.60326718 352.83687648 846.61374262 328.81585489 846.62255895 C317.45025506 846.62676652 306.08465575 846.63198837 294.71905636 846.63724348 C255.80720085 846.65513336 216.89534518 846.6701289 177.98348618 846.67756367 C175.54086618 846.67803842 173.09824619 846.67851431 170.65562619 846.67899133 C168.83866169 846.67934589 168.83866169 846.67934589 166.98499084 846.67970762 C160.84798543 846.68090881 154.71098002 846.68212426 148.57397461 846.68334961 C147.35607156 846.68358976 146.13816851 846.68382991 144.8833593 846.68407734 C105.40212478 846.69196906 65.92092031 846.71539844 26.43969892 846.74790555 C-15.30969292 846.78221736 -57.05906718 846.80191607 -98.80847335 846.80520791 C-103.39328878 846.80562544 -107.9781042 846.806105 -112.56291962 846.80663109 C-113.69181625 846.80675428 -114.82071288 846.80687747 -115.9838185 846.8070044 C-134.13722613 846.80933475 -152.29059881 846.82498552 -170.443994 846.84547293 C-188.69827529 846.86574704 -206.95251468 846.87120073 -225.20680514 846.8617023 C-236.04500463 846.85649351 -246.88306443 846.86233545 -257.72124377 846.88423697 C-264.97092317 846.89777693 -272.22050676 846.8966399 -279.47018719 846.88383501 C-283.59440755 846.87695963 -287.71836148 846.8761952 -291.8425577 846.8933951 C-329.21437122 847.03939783 -362.09641972 840.22642691 -390.43383789 814.38818359 C-391.7877648 813.30455063 -393.14190104 812.22117911 -394.49633789 811.13818359 C-408.21581046 798.94951533 -418.07998008 782.07375609 -424.80883789 765.20068359 C-425.11853516 764.44964355 -425.42823242 763.69860352 -425.74731445 762.92480469 C-432.04586837 746.13665688 -433.19713316 727.24659445 -434.77508545 709.53335571 C-434.97982593 707.31795549 -435.18542219 705.10263421 -435.39178777 702.88738477 C-435.95025785 696.86560928 -436.49658375 690.84278745 -437.04070687 684.81970096 C-437.5711188 678.969949 -438.1108595 673.12106214 -438.65020742 667.27212841 C-439.88755579 653.849166 -441.11167128 640.42501742 -442.33159295 627.00046153 C-443.27457276 616.62434239 -444.22116835 606.24855865 -445.1702652 595.87299728 C-445.3070852 594.37711411 -445.44390413 592.88123084 -445.58072199 591.38534748 C-445.78695383 589.13057134 -445.99318738 586.87579536 -446.19942893 584.62102011 C-448.11468831 563.68111642 -450.02594912 542.74085083 -451.92878342 521.79981422 C-452.00037951 521.01189475 -452.0719756 520.22397527 -452.14574126 519.41217944 C-452.72695911 513.01559988 -453.30807751 506.61901129 -453.88918686 500.22242187 C-456.15359266 475.29788817 -458.43089701 450.37456292 -460.71850586 425.45214844 C-463.29485441 397.383782 -465.86146482 369.31454934 -468.41390443 341.24399793 C-468.68679965 338.24317194 -468.95972682 335.24234886 -469.23267365 332.24152756 C-469.29986202 331.50277314 -469.36705039 330.76401873 -469.43627477 330.00287782 C-470.44508784 318.91284504 -471.4613476 307.82351121 -472.48149872 296.73451614 C-473.64370738 284.10122178 -474.79557146 271.4670311 -475.93421045 258.83158965 C-476.51432903 252.39858543 -477.09886631 245.96607243 -477.69627571 239.5346489 C-487.00101884 139.22721904 -487.00101884 139.22721904 -455.43383789 98.38818359 C-451.02391658 93.13656441 -446.34676816 88.17182622 -441.43383789 83.38818359 C-440.99555664 82.89318359 -440.55727539 82.39818359 -440.10571289 81.88818359 C-421.05627929 61.1069833 -389.45423342 51.04702194 -362.15856934 49.16199493 C-353.92917132 48.82259268 -345.69959165 48.87678749 -337.46508789 48.92724609 C-334.8434661 48.92963884 -332.22184256 48.93053409 -329.60021973 48.93002319 C-324.15110443 48.93187618 -318.70221657 48.94897382 -313.25317383 48.9765625 C-306.99827681 49.0081188 -300.74362646 49.01855307 -294.48865557 49.01709139 C-288.40014985 49.015862 -282.31173502 49.02636983 -276.22325134 49.04267502 C-273.66227181 49.04898722 -271.10128533 49.05296866 -268.54029846 49.05446243 C-236.91475611 49.09315451 -236.91475611 49.09315451 -221.49633789 53.57568359 C-220.37630371 53.89714355 -220.37630371 53.89714355 -219.23364258 54.22509766 C-201.54721373 59.50786284 -186.44992919 68.41417182 -172.43383789 80.38818359 C-171.61399414 81.07396484 -170.79415039 81.75974609 -169.94946289 82.46630859 C-156.97023393 93.67197832 -147.89981701 107.08175619 -140.43383789 122.38818359 C-138.33871993 116.36867548 -136.58434698 110.33387237 -134.98681641 104.16455078 C-125.07729644 65.93532793 -106.24403627 35.95704956 -71.43383789 15.38818359 C-48.72973389 2.90561248 -25.51097133 -0.08125812 0 0 Z M13.56616211 155.38818359 C11.6468687 161.14606382 9.86898887 166.74345462 8.4210968 172.60768127 C8.22660657 173.38307894 8.03211633 174.15847661 7.83173245 174.95737118 C7.18818473 177.52666492 6.54965303 180.09717723 5.91113281 182.66772461 C5.44794546 184.52132117 4.98444635 186.37483986 4.5206604 188.22828674 C3.26771624 193.23920545 2.0191166 198.25119753 0.77131295 203.26339841 C-0.53540541 208.50907209 -1.84614281 213.75374134 -3.15644836 218.9985199 C-5.63475791 228.92106869 -8.10946843 238.84451137 -10.58287698 248.76828283 C-13.92704915 262.18482844 -17.27679982 275.59998103 -20.6262331 289.01521397 C-25.8999861 310.13840371 -31.16630122 331.26344056 -36.43383789 352.38818359 C-99.46383789 352.71818359 -162.49383789 353.04818359 -227.43383789 353.38818359 C-228.42383789 348.93318359 -228.42383789 348.93318359 -229.43383789 344.38818359 C-230.19503274 341.88862142 -230.99688762 339.40109787 -231.83789062 336.92724609 C-232.07136641 336.23613424 -232.30484219 335.54502239 -232.54539299 334.83296776 C-233.31503858 332.55819924 -234.09124184 330.28572654 -234.86743164 328.01318359 C-235.41907956 326.386432 -235.97027222 324.75952597 -236.52104187 323.13247681 C-237.69211562 319.67558516 -238.86593962 316.21964553 -240.04205322 312.76446533 C-242.80651993 304.64269282 -245.55771154 296.51642028 -248.310112 288.39055252 C-249.23599344 285.65756449 -250.16244218 282.9247692 -251.08892822 280.19198608 C-254.89285371 268.96744142 -258.67097902 257.73464549 -262.41430664 246.48974609 C-262.6396578 245.8128347 -262.86500896 245.13592331 -263.09718895 244.43849945 C-265.38901521 237.55214653 -267.67475842 230.66377966 -269.95898438 223.77490234 C-270.51233208 222.10867325 -270.51233208 222.10867325 -271.07685852 220.40878296 C-271.75702158 218.3604332 -272.43589363 216.3116541 -273.11320496 214.26235962 C-273.40737808 213.37656219 -273.70155121 212.49076477 -274.00463867 211.578125 C-274.3854509 210.4278331 -274.3854509 210.4278331 -274.7739563 209.25430298 C-275.4105497 207.33189063 -275.4105497 207.33189063 -276.43383789 205.38818359 C-291.94383789 205.38818359 -307.45383789 205.38818359 -323.43383789 205.38818359 C-322.73860355 219.67855571 -322.73860355 219.67855571 -321.65765381 233.927351 C-321.58588787 234.7278047 -321.51412192 235.5282584 -321.44018126 236.35296828 C-321.20542748 238.96185595 -320.9656753 241.57025633 -320.72583008 244.17868042 C-320.5521339 246.09714526 -320.37875246 248.01563862 -320.20565414 249.93415749 C-319.73419941 255.14940011 -319.25831194 260.36422972 -318.78162575 265.57899642 C-318.2664006 271.22410938 -317.75536273 276.86960167 -317.24377441 282.51504517 C-316.24328763 293.54816345 -315.23895152 304.58092802 -314.23324013 315.61357115 C-313.06186416 328.46489281 -311.89412543 341.3165442 -310.72647238 354.16820456 C-308.58085175 377.7821225 -306.43130392 401.39568122 -304.2799949 425.00908149 C-302.31648051 446.56143932 -300.35617852 468.11408699 -298.39868164 489.66699219 C-297.89663931 495.19466196 -297.39459391 500.72233145 -296.89251709 506.24999809 C-296.8307027 506.93055126 -296.76888831 507.61110443 -296.70520076 508.31228042 C-295.06762986 526.34078166 -293.4275212 544.36905194 -291.78664017 562.3972522 C-291.55156609 564.98001543 -291.31649299 567.56277874 -291.0814209 570.14554214 C-290.96576397 571.41625276 -290.85010704 572.68696338 -290.73094535 573.99618038 C-289.91543639 582.95728749 -289.10111797 591.91850233 -288.28723145 600.87975693 C-287.29652878 611.78732403 -286.30386759 622.6947108 -285.30869484 633.601871 C-284.80089112 639.16793269 -284.29395698 644.73406996 -283.78935242 650.30042267 C-283.32782697 655.39127052 -282.8638204 660.48188579 -282.39779711 665.57232381 C-282.22930294 667.41764177 -282.0617279 669.26304392 -281.89514494 671.10853539 C-281.66925646 673.60952213 -281.44006578 676.11018473 -281.21002197 678.61079216 C-281.14555233 679.33343358 -281.08108268 680.05607501 -281.0146594 680.80061466 C-280.67839573 684.41553075 -280.14888469 687.81294958 -279.43383789 691.38818359 C-35.89383789 691.38818359 207.64616211 691.38818359 458.56616211 691.38818359 C461.66022732 660.68182911 461.66022732 660.68182911 464.56573486 629.95896912 C464.73403559 628.11863526 464.90248619 626.27831511 465.07106757 624.43800694 C465.51962453 619.53674336 465.9661081 614.63529312 466.41214418 609.73379958 C466.89888868 604.38928192 467.38767572 599.04495094 467.87615967 593.70059204 C468.82629772 583.30176144 469.77455556 572.90276028 470.72202519 562.50368624 C471.49180683 554.05499688 472.26217937 545.6063616 473.03295135 537.15776253 C475.46168061 510.53527479 477.88833357 483.91259861 480.31340787 457.2897777 C482.22456882 436.30969337 484.13901125 415.32990991 486.05492046 394.3502587 C488.02818138 372.74220931 489.99909793 351.13394723 491.96752524 329.52545696 C493.07040425 317.41906741 494.17423989 305.31276688 495.28058624 293.20669365 C496.21980022 282.92922322 497.15683195 272.65155676 498.09100655 262.373627 C498.56739936 257.13296973 499.04481704 251.89241113 499.52497864 246.6520977 C499.96423794 241.85789255 500.40058576 237.0634317 500.83459923 232.26874889 C500.99218915 230.53352614 501.15085062 228.79840031 501.31068423 227.0633828 C501.52758984 224.7071135 501.74059872 222.35052285 501.95264053 219.99381161 C502.07198275 218.68457476 502.19132496 217.3753379 502.31428361 216.02642721 C502.55926405 212.48782216 502.56616211 208.9352586 502.56616211 205.38818359 C487.05616211 205.38818359 471.54616211 205.38818359 455.56616211 205.38818359 C448.83493776 224.07008071 442.34115477 242.79713125 436.09350586 261.64599609 C435.23649451 264.22458483 434.37845242 266.8028302 433.520401 269.381073 C431.52213167 275.38707394 429.52668947 281.39400929 427.53259236 287.40139663 C423.94050766 298.22273506 420.34463606 309.04281448 416.7458325 319.86192024 C415.28492022 324.25437784 413.82671608 328.64772906 412.36912537 333.04129028 C411.61317535 335.31596059 410.85716191 337.59060982 410.10107422 339.86523438 C409.75570114 340.90809097 409.41032806 341.95094757 409.05448914 343.02540588 C408.73941406 343.97214676 408.42433899 344.91888763 408.09971619 345.89431763 C407.82602675 346.71890535 407.55233732 347.54349308 407.27035427 348.39306831 C406.56616211 350.38818359 406.56616211 350.38818359 405.56616211 352.38818359 C342.53616211 352.71818359 279.50616211 353.04818359 214.56616211 353.38818359 C214.23616211 350.74818359 213.90616211 348.10818359 213.56616211 345.38818359 C212.97387078 342.6738941 212.35077855 339.99301417 211.66833496 337.30239868 C211.47625914 336.52926657 211.28418332 335.75613446 211.08628702 334.9595741 C210.44666436 332.38988357 209.80037433 329.82191935 209.15405273 327.25390625 C208.69208235 325.40387719 208.23051965 323.55374629 207.76933289 321.70352173 C206.51953785 316.69467228 205.26388513 311.68730832 204.00703239 306.68022585 C202.69246724 301.43955943 201.38287702 296.1976499 200.07263184 290.9559021 C197.87332625 282.16055076 195.67038233 273.36611715 193.46508789 264.57226562 C190.91320555 254.39623997 188.36626959 244.2189866 185.82214403 234.04101908 C183.37527417 224.25232059 180.92571971 214.46429614 178.47465515 204.67664719 C177.43087565 200.50860115 176.38790029 196.3403551 175.34553528 192.17195511 C174.11985878 187.27125271 172.89179277 182.3711552 171.66184425 177.47152328 C171.20992944 175.66972247 170.75881862 173.8677198 170.3085537 172.06550598 C169.69587323 169.61380787 169.08031976 167.16284929 168.46398926 164.71206665 C168.28470965 163.99185101 168.10543004 163.27163537 167.92071772 162.52959502 C167.00593917 158.86612988 167.00593917 158.86612988 165.56616211 155.38818359 C115.40616211 155.38818359 65.24616211 155.38818359 13.56616211 155.38818359 Z " fill="#000000" transform="translate(766.433837890625,600.61181640625)"/>
</svg>
