<?xml version="1.0" standalone="no"?>
<!DOCTYPE svg PUBLIC "-//W3C//DTD SVG 20010904//EN"
 "http://www.w3.org/TR/2001/REC-SVG-20010904/DTD/svg10.dtd">
<svg version="1.0" xmlns="http://www.w3.org/2000/svg"
 width="900.000000pt" height="900.000000pt" viewBox="0 0 900.000000 900.000000"
 preserveAspectRatio="xMidYMid meet">

<g transform="translate(0.000000,900.000000) scale(0.100000,-0.100000)"
fill="#000000" stroke="none">
<path d="M2203 7398 c-105 -332 -235 -743 -423 -1338 -100 -316 -219 -694
-265 -840 -215 -678 -665 -2106 -668 -2116 -1 -6 218 -216 488 -465 269 -250
609 -565 755 -701 l265 -247 834 2 835 2 123 495 c68 272 126 496 128 498 2 3
41 -30 86 -72 l82 -76 226 0 226 -1 363 -424 363 -425 847 2 846 3 421 2105
422 2105 -421 843 -421 842 -854 -2 -854 -3 -140 -417 -139 -418 -232 0 -232
0 -40 -135 c-21 -74 -42 -134 -46 -132 -8 2 -58 70 -510 695 l-299 412 -853 0
-852 0 -61 -192z m1607 -95 c0 -4 -39 -130 -87 -280 l-87 -273 -672 0 -673 0
14 43 c8 23 48 149 90 280 l76 237 669 0 c369 0 670 -3 670 -7z m3267 -12 c-2
-11 -69 -326 -148 -700 l-144 -681 -337 0 c-186 0 -338 1 -338 3 0 1 63 190
139 420 l139 417 -379 0 c-208 0 -379 3 -379 7 0 5 41 131 91 280 l91 273 635
0 c622 0 635 0 630 -19z m-3118 -1018 c-176 -606 -187 -644 -176 -648 7 -3
672 -3 1480 -2 1298 2 1467 0 1467 -13 0 -8 -141 -577 -313 -1265 l-313 -1250
-733 -3 c-695 -2 -732 -1 -727 15 3 10 98 378 211 818 209 813 251 976 261
1008 5 16 -12 17 -263 17 l-269 0 -127 -422 c-70 -233 -138 -457 -151 -498
l-23 -75 -476 -3 c-262 -1 -477 1 -477 5 1 5 67 229 149 498 l148 490 -265 3
c-146 1 -266 1 -268 0 -1 -2 -31 -102 -66 -223 l-63 -220 -293 -3 c-160 -1
-292 -1 -292 1 0 1 41 124 90 272 50 148 90 273 90 277 0 5 -180 8 -400 8
-302 0 -400 3 -400 12 0 6 100 324 223 705 l222 693 906 0 906 0 -58 -197z
m2031 185 c0 -7 -40 -132 -89 -278 l-88 -265 -467 -3 c-256 -1 -466 1 -466 6
0 7 144 509 155 540 6 18 955 18 955 0z m-3820 -1685 c0 -5 -83 -255 -183
-558 l-184 -550 460 -3 c360 -2 458 -5 454 -15 -2 -6 -19 -64 -37 -127 -18
-63 -36 -121 -40 -129 -6 -11 -129 -13 -704 -13 -384 1 -699 2 -701 4 -2 2 94
317 213 701 l216 697 253 0 c139 0 253 -3 253 -7z m705 -575 c-3 -13 -21 -75
-39 -138 l-33 -115 -306 -3 -305 -2 46 140 47 140 297 0 298 0 -5 -22z"/>
</g>
</svg>
