<?xml version="1.0" encoding="UTF-8"?>
<svg version="1.1" xmlns="http://www.w3.org/2000/svg" width="250" height="250">
<path d="M0 0 C0.33 0 0.66 0 1 0 C1.21914062 1.03898438 1.43828125 2.07796875 1.6640625 3.1484375 C4.56212818 16.17487519 9.09170619 26.86758153 20.45703125 34.69140625 C24.81997208 37.40597963 28.99345062 39.68248701 34 41 C34 41.66 34 42.32 34 43 C33.2265625 43.35191406 32.453125 43.70382813 31.65625 44.06640625 C25.5015963 46.98377304 20.41312598 49.9137886 15.5234375 54.6796875 C14 56 14 56 12 56 C11.690625 56.639375 11.38125 57.27875 11.0625 57.9375 C10 60 10 60 9 61 C30.78 61.495 30.78 61.495 53 62 C53 75.86 53 89.72 53 104 C47.39 104.0825 41.78 104.165 36 104.25 C34.26621094 104.28641602 32.53242188 104.32283203 30.74609375 104.36035156 C20.1948812 104.48740712 11.11155748 103.05312861 1 100 C-0.31706409 99.62047843 -1.63475638 99.24312886 -2.953125 98.86816406 C-3.95859375 98.58166992 -4.9640625 98.29517578 -6 98 C2.22846055 108.29642723 2.22846055 108.29642723 13.10870361 115.19140625 C16.98316868 116.79892499 19.82710174 118.38875146 22 122 C24.19475966 130.5317432 23.43426768 139.71654029 23.21672726 148.45614624 C23.14139443 151.9939301 23.13463857 155.53185036 23.12042236 159.0703125 C23.08321379 165.76125931 22.98487444 172.44983605 22.86422849 179.1397419 C22.72981042 186.75976068 22.66405048 194.37989645 22.60388327 202.00080681 C22.47865647 217.66857433 22.2677741 233.33398086 22 249 C18.7379449 248.27735684 17.15129386 247.52172066 14.79296875 245.12109375 C14.20580078 244.52876953 13.61863281 243.93644531 13.01367188 243.32617188 C12.1097168 242.3912793 12.1097168 242.3912793 11.1875 241.4375 C10.59646484 240.84130859 10.00542969 240.24511719 9.39648438 239.63085938 C6.41008243 236.59235009 3.56124854 233.49521992 0.82676697 230.22825623 C-1.71215249 227.29955198 -4.33276586 224.80370187 -7.34397888 222.36585999 C-14.8969389 216.08353446 -20.73260448 210.61462869 -21.80458164 200.48371029 C-22.02588088 195.09500094 -21.87849851 189.7573581 -21.66015625 184.37109375 C-21.62837445 182.04135493 -21.60421088 179.71150102 -21.58726501 177.38160706 C-21.52292572 171.30400452 -21.35649649 165.23351731 -21.16729736 159.15869141 C-20.99211262 152.9381536 -20.91548235 146.71644397 -20.83007812 140.49414062 C-20.64876925 128.32582696 -20.35027775 116.16462322 -20 104 C-29.9 104.495 -29.9 104.495 -40 105 C-42.1327944 109.42282364 -42.1327944 109.42282364 -44.24707031 113.85449219 C-46.17001518 117.77043045 -47.81240673 119.81240673 -51 123 C-51 102.87 -51 82.74 -51 62 C-36.81 61.67 -22.62 61.34 -8 61 C-15.37027479 52.40134608 -22.494846 47.08533767 -33 43 C-33 42.34 -33 41.68 -33 41 C-32.3709375 40.78085937 -31.741875 40.56171875 -31.09375 40.3359375 C-24.89416268 38.03910244 -19.9975639 35.32081046 -15 31 C-14.38125 30.47535156 -13.7625 29.95070313 -13.125 29.41015625 C-4.35227483 21.37479376 -2.01943725 11.3942232 0 0 Z " fill="#000000" transform="translate(124,1)"/>
</svg>
